<?xml version="1.0" encoding="utf-8"?>
<!-- Generator: Adobe Illustrator 27.5.0, SVG Export Plug-In . SVG Version: 6.00 Build 0)  -->
<svg version="1.1" id="Layer_1" xmlns="http://www.w3.org/2000/svg" xmlns:xlink="http://www.w3.org/1999/xlink" x="0px" y="0px"
	 viewBox="0 0 293.411 398.198" style="enable-background:new 0 0 293.411 398.198;" xml:space="preserve">
<g>
	<g>
		<path style="fill:#FFFFFF;" d="M37.314,388.243H266.94c0.086,0,0.171-0.001,0.259-0.003c1.443-0.039,8.915-0.584,14.252-7.472
			c3.066-3.958,4.623-9.019,4.623-15.039V43.306c0-16.138-11.288-22.302-18.875-22.508c-0.086-0.002-0.173-0.004-0.259-0.004h-0.515
			c-0.043,0-0.087,0.001-0.131,0.001H37.314c-0.087,0-0.172,0.001-0.258,0.004c-7.588,0.206-18.876,6.371-18.876,22.511v11.784
			c-0.005,0.127-0.008,0.253-0.008,0.38v300.455c0,0.134,0.003,0.268,0.009,0.4v9.404c0,16.137,11.287,22.302,18.875,22.508
			C37.142,388.242,37.228,388.243,37.314,388.243z"/>
		<path style="fill:#F1F1F1;" d="M36.328,387.258h229.628c0.085,0,0.171-0.001,0.257-0.004c1.444-0.039,8.916-0.583,14.253-7.472
			c3.067-3.958,4.623-9.019,4.623-15.04V42.321c0-16.137-11.288-22.302-18.875-22.508c-0.087-0.002-0.173-0.004-0.258-0.004h-0.515
			c-0.044,0-0.088,0.001-0.131,0.001H36.328c-0.086,0-0.171,0.001-0.258,0.004c-7.586,0.225-18.875,6.371-18.875,22.511v11.784
			c-0.005,0.126-0.008,0.252-0.008,0.38v300.454c0,0.134,0.003,0.268,0.009,0.4v9.403c0,16.138,11.288,22.302,18.874,22.509
			C36.156,387.257,36.242,387.258,36.328,387.258z"/>
		<path style="fill:#E2E2E2;" d="M35.344,386.273H264.97c0.086,0,0.172-0.002,0.258-0.004c1.443-0.04,8.917-0.584,14.252-7.472
			c3.068-3.958,4.624-9.019,4.624-15.039V41.335c0-16.138-11.288-22.302-18.875-22.508c-0.086-0.002-0.173-0.004-0.259-0.004h-0.514
			c-0.044,0-0.087,0.001-0.131,0.001H35.344c-0.086,0-0.172,0.001-0.258,0.004c-7.586,0.225-18.876,6.37-18.876,22.51v11.784
			c-0.005,0.126-0.008,0.253-0.008,0.38v300.454c0,0.134,0.003,0.268,0.009,0.4v9.403c0,16.138,11.287,22.302,18.875,22.509
			C35.171,386.271,35.258,386.273,35.344,386.273z"/>
		<path style="fill:#D4D4D4;" d="M34.358,385.287h229.626c0.086,0,0.172-0.001,0.258-0.004c1.443-0.039,8.917-0.583,14.252-7.471
			c3.068-3.959,4.624-9.019,4.624-15.04V40.35c0-16.137-11.288-22.302-18.875-22.508c-0.086-0.002-0.173-0.004-0.259-0.004h-0.514
			c-0.044,0-0.088,0-0.131,0.001H34.358c-0.087,0-0.172,0.001-0.259,0.004c-7.586,0.225-18.875,6.371-18.875,22.51v11.784
			c-0.005,0.126-0.008,0.253-0.008,0.38v300.454c0,0.134,0.003,0.268,0.009,0.4v9.403c0,16.138,11.288,22.302,18.874,22.508
			C34.186,385.286,34.271,385.287,34.358,385.287z"/>
		<path style="fill:#C5C5C5;" d="M33.373,384.302h229.626c0.087,0,0.172-0.001,0.258-0.004c1.444-0.039,8.917-0.583,14.252-7.471
			c3.068-3.959,4.624-9.019,4.624-15.04V39.365c0-16.138-11.288-22.302-18.875-22.508c-0.086-0.002-0.172-0.004-0.259-0.004h-0.514
			c-0.044,0-0.087,0-0.131,0.001H33.373c-0.086,0-0.172,0.001-0.258,0.004c-7.588,0.226-18.876,6.371-18.876,22.51v11.784
			c-0.005,0.126-0.007,0.253-0.007,0.38v300.454c0,0.134,0.002,0.268,0.008,0.4v9.404c0,16.137,11.287,22.302,18.875,22.508
			C33.2,384.3,33.287,384.302,33.373,384.302z"/>
		<path style="fill:#B7B7B7;" d="M32.388,383.316h229.626c0.087,0,0.172-0.001,0.258-0.004c1.443-0.039,8.917-0.583,14.252-7.471
			c3.068-3.958,4.624-9.02,4.624-15.04V38.379c0-16.137-11.288-22.302-18.875-22.508c-0.086-0.003-0.172-0.004-0.259-0.004H261.5
			c-0.044,0-0.087,0.001-0.131,0.001H32.388c-0.087,0-0.172,0.001-0.258,0.004c-7.587,0.226-18.876,6.371-18.876,22.511v11.784
			c-0.005,0.127-0.007,0.253-0.007,0.38v300.455c0,0.134,0.002,0.268,0.008,0.4v9.404c0,16.137,11.288,22.302,18.875,22.508
			C32.215,383.315,32.301,383.316,32.388,383.316z"/>
		<path style="fill:#A8A8A8;" d="M31.402,382.331h229.625c0.088,0,0.173-0.001,0.258-0.004c1.444-0.039,8.918-0.583,14.252-7.472
			c3.069-3.958,4.624-9.019,4.624-15.039V37.394c0-16.138-11.286-22.302-18.874-22.508c-0.086-0.002-0.172-0.003-0.26-0.003h-0.514
			c-0.043,0-0.086,0-0.13,0.001H31.402c-0.086,0-0.172,0.001-0.258,0.003c-7.587,0.226-18.876,6.371-18.876,22.511v11.784
			c-0.005,0.126-0.007,0.252-0.007,0.38v300.454c0,0.134,0.002,0.268,0.008,0.4v9.403c0,16.138,11.288,22.302,18.875,22.508
			C31.23,382.33,31.316,382.331,31.402,382.331z"/>
		<path style="fill:#9A9A9A;" d="M30.417,381.346h229.626c0.087,0,0.172-0.001,0.258-0.004c1.443-0.039,8.917-0.583,14.252-7.472
			c3.068-3.958,4.623-9.019,4.623-15.039V36.408c0-16.137-11.286-22.302-18.873-22.508c-0.088-0.002-0.173-0.004-0.26-0.004h-0.515
			c-0.042,0-0.087,0-0.13,0.001H30.417c-0.087,0-0.171,0.001-0.258,0.004c-7.587,0.225-18.876,6.37-18.876,22.51v11.784
			c-0.005,0.126-0.007,0.252-0.007,0.38V349.03c0,0.134,0.002,0.268,0.008,0.4v9.403c0,16.138,11.287,22.302,18.875,22.508
			C30.244,381.344,30.33,381.346,30.417,381.346z"/>
		<path style="fill:#8B8B8B;" d="M29.432,380.36h229.626c0.087,0,0.172-0.001,0.258-0.004c1.443-0.039,8.916-0.583,14.252-7.471
			c3.068-3.959,4.624-9.019,4.624-15.04V35.423c0-16.137-11.288-22.302-18.875-22.508c-0.087-0.002-0.172-0.004-0.259-0.004h-0.515
			c-0.043,0-0.087,0-0.131,0.001H29.432c-0.087,0-0.172,0.001-0.258,0.004c-7.587,0.225-18.877,6.371-18.877,22.51V47.21
			c-0.004,0.126-0.006,0.253-0.006,0.38v300.454c0,0.134,0.002,0.268,0.008,0.4v9.404c0,16.137,11.287,22.302,18.875,22.508
			C29.258,380.359,29.345,380.36,29.432,380.36z"/>
		<path style="fill:#7D7D7D;" d="M28.445,379.375h229.627c0.086,0,0.172-0.002,0.258-0.004c1.443-0.039,8.916-0.583,14.252-7.472
			c3.068-3.958,4.623-9.019,4.623-15.039V34.438c0-16.138-11.287-22.302-18.874-22.509c-0.087-0.002-0.173-0.003-0.259-0.003h-0.514
			c-0.044,0-0.088,0-0.131,0H28.445c-0.086,0-0.172,0.002-0.258,0.004c-7.586,0.225-18.875,6.371-18.875,22.51v11.784
			c-0.005,0.126-0.008,0.253-0.008,0.38v300.454c0,0.134,0.003,0.268,0.009,0.4v9.403c0,16.138,11.287,22.302,18.874,22.508
			C28.273,379.373,28.359,379.375,28.445,379.375z"/>
		<path style="fill:#6E6E6E;" d="M27.461,378.389h229.626c0.086,0,0.171-0.001,0.258-0.003c1.443-0.039,8.917-0.583,14.252-7.472
			c3.067-3.958,4.624-9.019,4.624-15.039V33.453c0-16.138-11.288-22.302-18.875-22.509c-0.086-0.002-0.173-0.003-0.259-0.003h-0.515
			c-0.043,0-0.087,0.001-0.131,0.001H27.461c-0.087,0-0.172,0.001-0.258,0.003C19.616,11.17,8.327,17.315,8.327,33.456v11.784
			c-0.005,0.127-0.008,0.253-0.008,0.38v300.455c0,0.134,0.003,0.268,0.009,0.4v9.404c0,16.137,11.287,22.302,18.875,22.508
			C27.288,378.388,27.374,378.389,27.461,378.389z"/>
		<path style="fill:#606060;" d="M26.475,377.404h229.627c0.086,0,0.172-0.001,0.258-0.004c1.443-0.039,8.916-0.583,14.252-7.472
			c3.068-3.958,4.624-9.019,4.624-15.04V32.467c0-16.138-11.288-22.302-18.875-22.508c-0.086-0.003-0.173-0.004-0.259-0.004h-0.514
			c-0.044,0-0.088,0-0.131,0.001H26.475c-0.086,0-0.171,0.001-0.258,0.003C18.63,10.166,7.342,16.33,7.342,32.47v11.784
			c-0.005,0.126-0.008,0.252-0.008,0.38v300.454c0,0.134,0.003,0.268,0.009,0.4v9.403c0,16.138,11.287,22.302,18.874,22.508
			C26.303,377.403,26.389,377.404,26.475,377.404z"/>
	</g>
	<path style="fill:#FFFFFF;" d="M26.475,377.404h229.627c0.086,0,0.172-0.001,0.258-0.004c1.443-0.039,8.916-0.583,14.252-7.472
		c3.068-3.958,4.624-9.019,4.624-15.04V32.467c0-16.138-11.288-22.302-18.875-22.508c-0.086-0.003-0.173-0.004-0.259-0.004h-0.514
		c-0.044,0-0.088,0-0.131,0.001H26.475c-0.086,0-0.171,0.001-0.258,0.003C18.63,10.166,7.342,16.33,7.342,32.47v11.784
		c-0.005,0.126-0.008,0.252-0.008,0.38v300.454c0,0.134,0.003,0.268,0.009,0.4v9.403c0,16.138,11.287,22.302,18.874,22.508
		C26.303,377.403,26.389,377.404,26.475,377.404z"/>
	<g>
		<g>
			<g>
				<path style="fill:#FFFFFF;" d="M256.102,19.456H145.975h-9.373H26.475c0,0-9.633,0.262-9.633,13.014l0.001,86.915v148.59v86.917
					c0,12.75,9.632,13.012,9.632,13.012h110.127h9.373h110.127c0,0,9.633-0.262,9.633-13.012v-86.917v-148.59V32.47
					C265.734,19.718,256.102,19.456,256.102,19.456z"/>
				<defs>
					<filter id="Adobe_OpacityMaskFilter" filterUnits="userSpaceOnUse" x="16.843" y="207.504" width="248.892" height="160.4">
						<feFlood  style="flood-color:white;flood-opacity:1" result="back"/>
						<feBlend  in="SourceGraphic" in2="back" mode="normal"/>
					</filter>
				</defs>
				<mask maskUnits="userSpaceOnUse" x="16.843" y="207.504" width="248.892" height="160.4" id="SVGID_1_">
					<g style="filter:url(#Adobe_OpacityMaskFilter);">
						<defs>
							
								<filter id="Adobe_OpacityMaskFilter_00000043425929357871926580000004107906351252641723_" filterUnits="userSpaceOnUse" x="16.843" y="207.504" width="248.892" height="160.4">
								<feFlood  style="flood-color:white;flood-opacity:1" result="back"/>
								<feBlend  in="SourceGraphic" in2="back" mode="normal"/>
							</filter>
						</defs>
						<mask maskUnits="userSpaceOnUse" x="16.843" y="207.504" width="248.892" height="160.4" id="SVGID_1_">
							<g style="filter:url(#Adobe_OpacityMaskFilter_00000043425929357871926580000004107906351252641723_);">
							</g>
						</mask>
						
							<radialGradient id="SVGID_00000037694817523900704560000004316927709712459710_" cx="137.4371" cy="-99.3356" r="503.8668" gradientUnits="userSpaceOnUse">
							<stop  offset="0.6156" style="stop-color:#000000"/>
							<stop  offset="0.7516" style="stop-color:#020202"/>
							<stop  offset="0.8037" style="stop-color:#090909"/>
							<stop  offset="0.8413" style="stop-color:#151515"/>
							<stop  offset="0.8721" style="stop-color:#262626"/>
							<stop  offset="0.8986" style="stop-color:#3C3C3C"/>
							<stop  offset="0.9222" style="stop-color:#585858"/>
							<stop  offset="0.9436" style="stop-color:#797979"/>
							<stop  offset="0.9634" style="stop-color:#9F9F9F"/>
							<stop  offset="0.9817" style="stop-color:#CBCBCB"/>
							<stop  offset="0.9982" style="stop-color:#F9F9F9"/>
							<stop  offset="1" style="stop-color:#FFFFFF"/>
						</radialGradient>
						<path style="mask:url(#SVGID_1_);fill:url(#SVGID_00000037694817523900704560000004316927709712459710_);" d="
							M163.594,207.517c-48.918,0.01-97.834,0.031-146.751,0.051v147.324c0,12.75,9.632,13.012,9.632,13.012h229.627
							c0,0,9.633-0.262,9.633-13.012V207.504C231.688,207.508,197.641,207.509,163.594,207.517z"/>
					</g>
				</mask>
				
					<radialGradient id="SVGID_00000085931868332535537820000000509915408792408985_" cx="137.4371" cy="-99.3356" r="503.8668" gradientUnits="userSpaceOnUse">
					<stop  offset="0.6156" style="stop-color:#FFFFFF"/>
					<stop  offset="0.7878" style="stop-color:#FDFDFD"/>
					<stop  offset="0.8537" style="stop-color:#F6F6F6"/>
					<stop  offset="0.9014" style="stop-color:#EAEAEA"/>
					<stop  offset="0.9403" style="stop-color:#D9D9D9"/>
					<stop  offset="0.9735" style="stop-color:#C3C3C3"/>
					<stop  offset="1" style="stop-color:#ABABAB"/>
				</radialGradient>
				<path style="fill:url(#SVGID_00000085931868332535537820000000509915408792408985_);" d="M163.594,207.517
					c-48.918,0.01-97.834,0.031-146.751,0.051v147.324c0,12.75,9.632,13.012,9.632,13.012h229.627c0,0,9.633-0.262,9.633-13.012
					V207.504C231.688,207.508,197.641,207.509,163.594,207.517z"/>
				<defs>
					
						<filter id="Adobe_OpacityMaskFilter_00000103969938228543188740000002791342789790305455_" filterUnits="userSpaceOnUse" x="16.842" y="19.456" width="248.893" height="173.937">
						<feFlood  style="flood-color:white;flood-opacity:1" result="back"/>
						<feBlend  in="SourceGraphic" in2="back" mode="normal"/>
					</filter>
				</defs>
				
					<mask maskUnits="userSpaceOnUse" x="16.842" y="19.456" width="248.893" height="173.937" id="SVGID_00000109022958394617338680000013052997273173441922_">
					<g style="filter:url(#Adobe_OpacityMaskFilter_00000103969938228543188740000002791342789790305455_);">
						<defs>
							
								<filter id="Adobe_OpacityMaskFilter_00000021089194888134374110000008497205442892474027_" filterUnits="userSpaceOnUse" x="16.842" y="19.456" width="248.893" height="173.937">
								<feFlood  style="flood-color:white;flood-opacity:1" result="back"/>
								<feBlend  in="SourceGraphic" in2="back" mode="normal"/>
							</filter>
						</defs>
						
							<mask maskUnits="userSpaceOnUse" x="16.842" y="19.456" width="248.893" height="173.937" id="SVGID_00000109022958394617338680000013052997273173441922_">
							<g style="filter:url(#Adobe_OpacityMaskFilter_00000021089194888134374110000008497205442892474027_);">
							</g>
						</mask>
						
							<radialGradient id="SVGID_00000047037980909242322590000017864284921223957408_" cx="142.4222" cy="341.0065" r="361.0526" gradientUnits="userSpaceOnUse">
							<stop  offset="0.6156" style="stop-color:#000000"/>
							<stop  offset="0.7096" style="stop-color:#020202"/>
							<stop  offset="0.7623" style="stop-color:#0A0A0A"/>
							<stop  offset="0.8047" style="stop-color:#181818"/>
							<stop  offset="0.8418" style="stop-color:#2C2C2C"/>
							<stop  offset="0.8752" style="stop-color:#464646"/>
							<stop  offset="0.9062" style="stop-color:#656565"/>
							<stop  offset="0.9352" style="stop-color:#8A8A8A"/>
							<stop  offset="0.9626" style="stop-color:#B6B6B6"/>
							<stop  offset="0.9879" style="stop-color:#E5E5E5"/>
							<stop  offset="1" style="stop-color:#FFFFFF"/>
						</radialGradient>
						
							<path style="mask:url(#SVGID_00000109022958394617338680000013052997273173441922_);fill:url(#SVGID_00000047037980909242322590000017864284921223957408_);" d="
							M16.843,193.303c20.946,0.015,41.891,0.031,62.837,0.043c60.362,0.035,120.724,0.038,181.086,0.046
							c1.655,0,3.311-0.001,4.969-0.001V32.47c0-12.752-9.633-13.014-9.633-13.014H26.475c0,0-9.633,0.262-9.633,13.014
							l0.001,86.915V193.303z"/>
					</g>
				</mask>
				
					<radialGradient id="SVGID_00000137850345306571807280000004699191906092241289_" cx="142.4222" cy="341.0065" r="361.0526" gradientUnits="userSpaceOnUse">
					<stop  offset="0.6156" style="stop-color:#FFFFFF"/>
					<stop  offset="0.747" style="stop-color:#FDFDFD"/>
					<stop  offset="0.8206" style="stop-color:#F5F5F5"/>
					<stop  offset="0.8799" style="stop-color:#E7E7E7"/>
					<stop  offset="0.9316" style="stop-color:#D3D3D3"/>
					<stop  offset="0.9778" style="stop-color:#BABABA"/>
					<stop  offset="1" style="stop-color:#ABABAB"/>
				</radialGradient>
				<path style="fill:url(#SVGID_00000137850345306571807280000004699191906092241289_);" d="M16.843,193.303
					c20.946,0.015,41.891,0.031,62.837,0.043c60.362,0.035,120.724,0.038,181.086,0.046c1.655,0,3.311-0.001,4.969-0.001V32.47
					c0-12.752-9.633-13.014-9.633-13.014H26.475c0,0-9.633,0.262-9.633,13.014l0.001,86.915V193.303z"/>
			</g>
			<g>
				<defs>
					
						<filter id="Adobe_OpacityMaskFilter_00000162349427247313837690000017716018537303413434_" filterUnits="userSpaceOnUse" x="21.427" y="19.455" width="244.309" height="348.449">
						<feFlood  style="flood-color:white;flood-opacity:1" result="back"/>
						<feBlend  in="SourceGraphic" in2="back" mode="normal"/>
					</filter>
				</defs>
				
					<mask maskUnits="userSpaceOnUse" x="21.427" y="19.455" width="244.309" height="348.449" id="SVGID_00000119088016973797053950000001015639577053369766_">
					<g style="filter:url(#Adobe_OpacityMaskFilter_00000162349427247313837690000017716018537303413434_);">
						<defs>
							
								<filter id="Adobe_OpacityMaskFilter_00000175290481770419478580000010233863065972224663_" filterUnits="userSpaceOnUse" x="21.427" y="19.455" width="244.309" height="348.449">
								<feFlood  style="flood-color:white;flood-opacity:1" result="back"/>
								<feBlend  in="SourceGraphic" in2="back" mode="normal"/>
							</filter>
						</defs>
						
							<mask maskUnits="userSpaceOnUse" x="21.427" y="19.455" width="244.309" height="348.449" id="SVGID_00000119088016973797053950000001015639577053369766_">
							<g style="filter:url(#Adobe_OpacityMaskFilter_00000175290481770419478580000010233863065972224663_);">
							</g>
						</mask>
						
							<radialGradient id="SVGID_00000161633479635251205220000004440734975409526426_" cx="6.196" cy="19.2983" r="400.894" gradientUnits="userSpaceOnUse">
							<stop  offset="0.0988" style="stop-color:#000000"/>
							<stop  offset="1" style="stop-color:#FFFFFF"/>
						</radialGradient>
						
							<path style="mask:url(#SVGID_00000119088016973797053950000001015639577053369766_);fill:url(#SVGID_00000161633479635251205220000004440734975409526426_);" d="
							M265.23,32.448v86.791v148.376l0.002,86.789c0,12.733-9.645,12.995-9.645,12.995H145.352h-9.383H25.729
							c0,0-2.077-0.058-4.303-1.392c2.482,1.822,5.048,1.897,5.048,1.897h110.129h9.372h110.126c0,0,9.634-0.263,9.634-13.015
							v-86.915v-148.59V32.467c0-12.75-9.634-13.012-9.634-13.012h-0.514C255.588,19.455,265.23,19.716,265.23,32.448z"/>
					</g>
				</mask>
				
					<radialGradient id="SVGID_00000065052610939211383490000004125418517405137074_" cx="6.196" cy="19.2983" r="400.894" gradientUnits="userSpaceOnUse">
					<stop  offset="0.0988" style="stop-color:#FFFFFF"/>
					<stop  offset="1" style="stop-color:#ABABAB"/>
				</radialGradient>
				<path style="fill:url(#SVGID_00000065052610939211383490000004125418517405137074_);" d="M265.23,32.448v86.791v148.376
					l0.002,86.789c0,12.733-9.645,12.995-9.645,12.995H145.352h-9.383H25.729c0,0-2.077-0.058-4.303-1.392
					c2.482,1.822,5.048,1.897,5.048,1.897h110.129h9.372h110.126c0,0,9.634-0.263,9.634-13.015v-86.915v-148.59V32.467
					c0-12.75-9.634-13.012-9.634-13.012h-0.514C255.588,19.455,265.23,19.716,265.23,32.448z"/>
			</g>
			<defs>
				
					<filter id="Adobe_OpacityMaskFilter_00000012450431513635864230000014730174673192829077_" filterUnits="userSpaceOnUse" x="16.842" y="19.456" width="244.311" height="348.448">
					<feFlood  style="flood-color:white;flood-opacity:1" result="back"/>
					<feBlend  in="SourceGraphic" in2="back" mode="normal"/>
				</filter>
			</defs>
			
				<mask maskUnits="userSpaceOnUse" x="16.842" y="19.456" width="244.311" height="348.448" id="SVGID_00000154421079750701121810000008151519854797621937_">
				<g style="filter:url(#Adobe_OpacityMaskFilter_00000012450431513635864230000014730174673192829077_);">
					<defs>
						
							<filter id="Adobe_OpacityMaskFilter_00000053503623136445529390000008533037108434457505_" filterUnits="userSpaceOnUse" x="16.842" y="19.456" width="244.311" height="348.448">
							<feFlood  style="flood-color:white;flood-opacity:1" result="back"/>
							<feBlend  in="SourceGraphic" in2="back" mode="normal"/>
						</filter>
					</defs>
					
						<mask maskUnits="userSpaceOnUse" x="16.842" y="19.456" width="244.311" height="348.448" id="SVGID_00000154421079750701121810000008151519854797621937_">
						<g style="filter:url(#Adobe_OpacityMaskFilter_00000053503623136445529390000008533037108434457505_);">
						</g>
					</mask>
					
						<radialGradient id="SVGID_00000080915392748714879350000017163997551467665571_" cx="84.8267" cy="120.8646" r="341.4548" gradientUnits="userSpaceOnUse">
						<stop  offset="0" style="stop-color:#000000"/>
						<stop  offset="0.0074" style="stop-color:#090909"/>
						<stop  offset="0.0477" style="stop-color:#373737"/>
						<stop  offset="0.0931" style="stop-color:#626262"/>
						<stop  offset="0.1419" style="stop-color:#888888"/>
						<stop  offset="0.195" style="stop-color:#A8A8A8"/>
						<stop  offset="0.2537" style="stop-color:#C4C4C4"/>
						<stop  offset="0.32" style="stop-color:#DADADA"/>
						<stop  offset="0.3974" style="stop-color:#EBEBEB"/>
						<stop  offset="0.4931" style="stop-color:#F6F6F6"/>
						<stop  offset="0.6274" style="stop-color:#FDFDFD"/>
						<stop  offset="1" style="stop-color:#FFFFFF"/>
					</radialGradient>
					
						<path style="mask:url(#SVGID_00000154421079750701121810000008151519854797621937_);fill:url(#SVGID_00000080915392748714879350000017163997551467665571_);" d="
						M17.347,354.911v-86.792V119.745v-86.79c0-12.734,9.643-12.995,9.643-12.995h110.238h9.381h110.24c0,0,2.076,0.058,4.304,1.392
						c-2.484-1.821-5.051-1.896-5.051-1.896H145.975h-9.373H26.475c0,0-9.633,0.262-9.633,13.014l0.001,86.915v148.59v86.917
						c0,12.75,9.632,13.012,9.632,13.012h0.515C26.989,367.904,17.347,367.643,17.347,354.911z"/>
				</g>
			</mask>
			
				<radialGradient id="SVGID_00000180364993427572474950000015856866623444278164_" cx="84.8267" cy="120.8646" r="341.4548" gradientUnits="userSpaceOnUse">
				<stop  offset="0" style="stop-color:#FFFFFF"/>
				<stop  offset="0.1413" style="stop-color:#FFFFFF"/>
				<stop  offset="1" style="stop-color:#FFFFFF"/>
			</radialGradient>
			<path style="fill:url(#SVGID_00000180364993427572474950000015856866623444278164_);" d="M17.347,354.911v-86.792V119.745v-86.79
				c0-12.734,9.643-12.995,9.643-12.995h110.238h9.381h110.24c0,0,2.076,0.058,4.304,1.392c-2.484-1.821-5.051-1.896-5.051-1.896
				H145.975h-9.373H26.475c0,0-9.633,0.262-9.633,13.014l0.001,86.915v148.59v86.917c0,12.75,9.632,13.012,9.632,13.012h0.515
				C26.989,367.904,17.347,367.643,17.347,354.911z"/>
			<g>
				<defs>
					
						<filter id="Adobe_OpacityMaskFilter_00000086668479965825328350000013074771477203481780_" filterUnits="userSpaceOnUse" x="16.833" y="44.634" width="0.506" height="300.454">
						<feFlood  style="flood-color:white;flood-opacity:1" result="back"/>
						<feBlend  in="SourceGraphic" in2="back" mode="normal"/>
					</filter>
				</defs>
				
					<mask maskUnits="userSpaceOnUse" x="16.833" y="44.634" width="0.506" height="300.454" id="SVGID_00000029757678527401051350000007108548513855938461_">
					<g style="filter:url(#Adobe_OpacityMaskFilter_00000086668479965825328350000013074771477203481780_);">
						<defs>
							
								<filter id="Adobe_OpacityMaskFilter_00000072974765447165962130000012426804831174687909_" filterUnits="userSpaceOnUse" x="16.833" y="44.634" width="0.506" height="300.454">
								<feFlood  style="flood-color:white;flood-opacity:1" result="back"/>
								<feBlend  in="SourceGraphic" in2="back" mode="normal"/>
							</filter>
						</defs>
						
							<mask maskUnits="userSpaceOnUse" x="16.833" y="44.634" width="0.506" height="300.454" id="SVGID_00000029757678527401051350000007108548513855938461_">
							<g style="filter:url(#Adobe_OpacityMaskFilter_00000072974765447165962130000012426804831174687909_);">
							</g>
						</mask>
						
							<radialGradient id="SVGID_00000034779182247761742080000017761301270530410138_" cx="340.6512" cy="19.2973" r="401.1328" gradientTransform="matrix(-1 0 0 1 617.418 0)" gradientUnits="userSpaceOnUse">
							<stop  offset="0.0988" style="stop-color:#000000"/>
							<stop  offset="1" style="stop-color:#FFFFFF"/>
						</radialGradient>
						
							<path style="mask:url(#SVGID_00000029757678527401051350000007108548513855938461_);fill:url(#SVGID_00000034779182247761742080000017761301270530410138_);" d="
							M16.833,44.634v300.454c0.169-0.608,0.334-1.218,0.505-1.825l0.001-75.648V50.081C17.167,48.265,16.999,46.449,16.833,44.634z
							"/>
					</g>
				</mask>
				
					<radialGradient id="SVGID_00000171712845779905126730000002802374265739448999_" cx="340.6512" cy="19.2973" r="401.1328" gradientTransform="matrix(-1 0 0 1 617.418 0)" gradientUnits="userSpaceOnUse">
					<stop  offset="0.0988" style="stop-color:#FFFFFF"/>
					<stop  offset="1" style="stop-color:#ABABAB"/>
				</radialGradient>
				<path style="fill:url(#SVGID_00000171712845779905126730000002802374265739448999_);" d="M16.833,44.634v300.454
					c0.169-0.608,0.334-1.218,0.505-1.825l0.001-75.648V50.081C17.167,48.265,16.999,46.449,16.833,44.634z"/>
			</g>
		</g>
		<g>
			<g>
				<g>
					<path d="M35.429,88.71c-0.541,6.477-4.192,11.011-4.192,11.011h4.192h4.193C39.622,99.721,35.973,95.187,35.429,88.71z"/>
					<path d="M41.506,81.379c-0.834,0-1.628,0.17-2.351,0.474c-0.018-0.019-0.036-0.037-0.055-0.056
						c1.462-1.109,2.405-2.864,2.405-4.839c0-3.357-2.721-6.077-6.077-6.077c-3.354,0-6.075,2.72-6.075,6.077
						c0,2.113,1.08,3.975,2.719,5.063c-0.818-0.411-1.741-0.643-2.719-0.643c-3.358,0-6.077,2.72-6.077,6.077
						c0,3.355,2.72,6.075,6.077,6.075c3.266,0,5.931-2.578,6.068-5.811c0.005,0.002,0.01,0.005,0.014,0.008
						c0.144,3.229,2.807,5.803,6.07,5.803c3.354,0,6.076-2.72,6.076-6.075C47.582,84.099,44.86,81.379,41.506,81.379z"/>
				</g>
				<path d="M42.669,35.35v1.078c-2.259,0-4.263,0.485-6.007,1.452c-1.746,0.968-3.194,2.392-4.347,4.269
					c-1.151,1.878-1.962,4.108-2.431,6.69l0.221,0.086c1.23-0.88,2.445-1.525,3.642-1.936c1.194-0.411,2.489-0.616,3.884-0.616
					c1.656,0,3.069,0.363,4.234,1.088c1.167,0.726,2.043,1.747,2.629,3.06c0.588,1.313,0.88,2.849,0.88,4.61
					c0,1.907-0.365,3.59-1.099,5.049c-0.733,1.46-1.868,2.608-3.4,3.443c-1.531,0.836-3.42,1.254-5.665,1.254
					c-3.214,0-5.636-0.997-7.272-2.992c-1.635-1.995-2.453-4.937-2.453-8.824c0-2.611,0.409-5.053,1.23-7.327
					c0.824-2.274,1.988-4.259,3.501-5.953c1.509-1.694,3.263-3.029,5.257-4.003c1.995-0.976,4.094-1.522,6.295-1.639L42.669,35.35z
					 M36.112,48.685c-0.719,0-1.413,0.08-2.081,0.24c-0.668,0.163-1.295,0.397-1.881,0.706c-0.586,0.307-1.158,0.695-1.717,1.165
					c-0.175,0.161-0.306,0.33-0.395,0.506c-0.146,0.278-0.242,0.623-0.285,1.034c-0.045,0.411-0.066,1.101-0.066,2.069
					c0,2.802,0.47,4.937,1.406,6.403c0.939,1.466,2.363,2.2,4.27,2.2c1.101,0,2.025-0.19,2.772-0.571
					c0.748-0.383,1.354-0.907,1.815-1.574c0.461-0.667,0.791-1.453,0.99-2.354c0.198-0.902,0.297-1.883,0.297-2.937
					c0-2.172-0.448-3.863-1.342-5.073C39.002,49.289,37.74,48.685,36.112,48.685z"/>
			</g>
			<g>
				<g>
					<path d="M245.791,297.734c0.541-6.476,4.192-11.011,4.192-11.011h-4.192h-4.193
						C241.598,286.723,245.248,291.258,245.791,297.734z"/>
					<path d="M239.714,305.065c0.833,0,1.628-0.17,2.351-0.474c0.018,0.019,0.035,0.037,0.055,0.056
						c-1.461,1.109-2.405,2.864-2.405,4.839c0,3.357,2.72,6.077,6.077,6.077c3.355,0,6.075-2.72,6.075-6.077
						c0-2.113-1.081-3.975-2.719-5.063c0.818,0.411,1.741,0.643,2.719,0.643c3.356,0,6.077-2.72,6.077-6.077
						c0-3.355-2.721-6.075-6.077-6.075c-3.267,0-5.931,2.578-6.069,5.811c-0.004-0.002-0.009-0.004-0.014-0.008
						c-0.143-3.229-2.806-5.802-6.069-5.802c-3.355,0-6.076,2.72-6.076,6.075C233.638,302.345,236.359,305.065,239.714,305.065z"/>
				</g>
				<path d="M238.551,351.094v-1.078c2.26,0,4.262-0.484,6.008-1.452c1.745-0.969,3.193-2.392,4.346-4.269
					c1.152-1.879,1.961-4.108,2.431-6.69l-0.22-0.087c-1.232,0.88-2.445,1.525-3.642,1.936c-1.195,0.411-2.49,0.616-3.885,0.616
					c-1.657,0-3.069-0.364-4.235-1.088c-1.166-0.727-2.041-1.748-2.628-3.06c-0.588-1.313-0.88-2.849-0.88-4.61
					c0-1.906,0.366-3.589,1.098-5.049c0.735-1.46,1.869-2.608,3.401-3.444c1.532-0.836,3.421-1.253,5.665-1.253
					c3.214,0,5.637,0.996,7.272,2.992c1.635,1.995,2.453,4.937,2.453,8.824c0,2.61-0.409,5.053-1.231,7.327
					c-0.822,2.275-1.988,4.259-3.5,5.953c-1.51,1.694-3.264,3.029-5.257,4.003c-1.995,0.976-4.094,1.523-6.294,1.639
					L238.551,351.094z M245.107,337.76c0.72,0,1.413-0.08,2.08-0.241c0.668-0.163,1.295-0.397,1.882-0.706
					c0.586-0.307,1.157-0.695,1.716-1.165c0.176-0.161,0.308-0.329,0.396-0.506c0.146-0.277,0.242-0.623,0.286-1.034
					c0.043-0.41,0.065-1.1,0.065-2.068c0-2.802-0.47-4.937-1.407-6.403c-0.939-1.466-2.362-2.2-4.269-2.2
					c-1.101,0-2.025,0.19-2.773,0.571c-0.748,0.383-1.354,0.906-1.816,1.574c-0.461,0.668-0.791,1.453-0.989,2.354
					c-0.198,0.902-0.296,1.883-0.296,2.937c0,2.172,0.447,3.863,1.342,5.072C242.217,337.155,243.48,337.76,245.107,337.76z"/>
			</g>
			<g>
				<g>
					<path d="M187.445,95.934c-1.074,12.853-8.322,21.854-8.322,21.854h8.322h8.322C195.768,117.787,188.522,108.786,187.445,95.934
						z"/>
					<path d="M199.506,81.381c-1.655,0-3.23,0.336-4.664,0.942c-0.035-0.037-0.072-0.074-0.107-0.113
						c2.898-2.202,4.771-5.682,4.771-9.604c0-6.661-5.399-12.058-12.061-12.058c-6.659,0-12.058,5.397-12.058,12.058
						c0,4.195,2.144,7.892,5.396,10.051c-1.624-0.815-3.455-1.276-5.396-1.276c-6.662,0-12.061,5.4-12.061,12.061
						c0,6.66,5.398,12.058,12.061,12.058c6.483,0,11.771-5.119,12.045-11.535c0.009,0.005,0.018,0.01,0.026,0.019
						c0.284,6.408,5.567,11.516,12.047,11.516c6.659,0,12.058-5.398,12.058-12.058C211.563,86.782,206.165,81.381,199.506,81.381z"
						/>
				</g>
				<g>
					<path d="M187.445,291.425c1.075-12.852,8.322-21.854,8.322-21.854h-8.322h-8.322
						C179.123,269.571,186.369,278.573,187.445,291.425z"/>
					<path d="M175.385,305.977c1.655,0,3.23-0.336,4.665-0.942c0.036,0.037,0.072,0.074,0.107,0.113
						c-2.898,2.202-4.772,5.682-4.772,9.604c0,6.661,5.4,12.058,12.061,12.058c6.66,0,12.059-5.398,12.059-12.058
						c0-4.195-2.144-7.892-5.396-10.051c1.625,0.815,3.457,1.276,5.396,1.276c6.661,0,12.059-5.4,12.059-12.061
						c0-6.66-5.398-12.058-12.059-12.058c-6.483,0-11.77,5.12-12.045,11.535c-0.01-0.005-0.017-0.01-0.026-0.019
						c-0.284-6.408-5.568-11.516-12.048-11.516c-6.659,0-12.058,5.398-12.058,12.058
						C163.327,300.577,168.725,305.977,175.385,305.977z"/>
				</g>
				<g>
					<path d="M95.496,95.934c-1.075,12.853-8.322,21.854-8.322,21.854h8.322h8.322C103.818,117.787,96.572,108.786,95.496,95.934z"
						/>
					<path d="M107.557,81.381c-1.655,0-3.23,0.336-4.665,0.942c-0.036-0.037-0.072-0.074-0.106-0.113
						c2.897-2.202,4.771-5.682,4.771-9.604c0-6.661-5.399-12.058-12.061-12.058c-6.66,0-12.059,5.397-12.059,12.058
						c0,4.195,2.144,7.892,5.396,10.051c-1.624-0.815-3.455-1.276-5.396-1.276c-6.662,0-12.061,5.4-12.061,12.061
						c0,6.66,5.398,12.058,12.061,12.058c6.483,0,11.771-5.119,12.045-11.535c0.01,0.005,0.018,0.01,0.026,0.019
						c0.285,6.408,5.568,11.516,12.048,11.516c6.659,0,12.058-5.398,12.058-12.058C119.614,86.782,114.216,81.381,107.557,81.381z"
						/>
				</g>
				<g>
					<path d="M187.445,200.445c-1.074,12.853-8.322,21.854-8.322,21.854h8.322h8.322
						C195.768,222.299,188.522,213.298,187.445,200.445z"/>
					<path d="M199.506,185.893c-1.655,0-3.23,0.337-4.664,0.942c-0.035-0.037-0.072-0.074-0.107-0.113
						c2.898-2.202,4.771-5.682,4.771-9.605c0-6.661-5.399-12.058-12.061-12.058c-6.659,0-12.058,5.397-12.058,12.058
						c0,4.195,2.144,7.892,5.396,10.052c-1.624-0.815-3.455-1.276-5.396-1.276c-6.662,0-12.061,5.4-12.061,12.061
						c0,6.661,5.398,12.059,12.061,12.059c6.483,0,11.771-5.12,12.045-11.535c0.009,0.005,0.018,0.01,0.026,0.018
						c0.284,6.408,5.567,11.517,12.047,11.517c6.659,0,12.058-5.398,12.058-12.059C211.563,191.293,206.165,185.893,199.506,185.893
						z"/>
				</g>
				<g>
					<path d="M95.496,200.445c-1.075,12.853-8.322,21.854-8.322,21.854h8.322h8.322C103.818,222.299,96.572,213.298,95.496,200.445z
						"/>
					<path d="M107.557,185.893c-1.655,0-3.23,0.337-4.665,0.942c-0.036-0.037-0.072-0.074-0.106-0.113
						c2.897-2.202,4.771-5.682,4.771-9.605c0-6.661-5.399-12.058-12.061-12.058c-6.66,0-12.059,5.397-12.059,12.058
						c0,4.195,2.144,7.892,5.396,10.052c-1.624-0.815-3.455-1.276-5.396-1.276c-6.662,0-12.061,5.4-12.061,12.061
						c0,6.661,5.398,12.059,12.061,12.059c6.483,0,11.771-5.12,12.045-11.535c0.01,0.005,0.018,0.01,0.026,0.018
						c0.285,6.408,5.568,11.517,12.048,11.517c6.659,0,12.058-5.398,12.058-12.059C119.614,191.293,114.216,185.893,107.557,185.893
						z"/>
				</g>
				<g>
					<path d="M95.496,291.425c1.074-12.852,8.322-21.854,8.322-21.854h-8.322h-8.322C87.174,269.571,94.419,278.573,95.496,291.425z
						"/>
					<path d="M83.436,305.977c1.654,0,3.23-0.336,4.664-0.942c0.035,0.037,0.072,0.074,0.107,0.113
						c-2.898,2.202-4.771,5.682-4.771,9.604c0,6.661,5.399,12.058,12.061,12.058c6.659,0,12.058-5.398,12.058-12.058
						c0-4.195-2.144-7.892-5.396-10.051c1.624,0.815,3.455,1.276,5.396,1.276c6.662,0,12.06-5.4,12.06-12.061
						c0-6.66-5.398-12.058-12.06-12.058c-6.483,0-11.771,5.12-12.045,11.535c-0.009-0.005-0.017-0.01-0.026-0.019
						c-0.284-6.408-5.568-11.516-12.047-11.516c-6.66,0-12.059,5.398-12.059,12.058C71.377,300.577,76.775,305.977,83.436,305.977z"
						/>
				</g>
			</g>
		</g>
	</g>
</g>
</svg>
