<?xml version="1.0" encoding="utf-8"?>
<!-- Generator: Adobe Illustrator 27.5.0, SVG Export Plug-In . SVG Version: 6.00 Build 0)  -->
<svg version="1.1" id="Layer_1" xmlns="http://www.w3.org/2000/svg" xmlns:xlink="http://www.w3.org/1999/xlink" x="0px" y="0px"
	 viewBox="0 0 293.41 398.197" style="enable-background:new 0 0 293.41 398.197;" xml:space="preserve">
<g>
	<g>
		<path style="fill:#FFFFFF;" d="M266.94,20.794H37.315c-0.086,0-0.171,0.001-0.258,0.004c-7.588,0.206-18.875,6.372-18.875,22.51
			v11.788c-0.005,0.124-0.007,0.251-0.007,0.377v300.454c0,0.126,0.002,0.251,0.007,0.377v9.427
			c0,16.139,11.288,22.302,18.875,22.509c0.087,0.002,0.172,0.003,0.258,0.003H266.94c0.085,0,0.172-0.001,0.257-0.003
			c1.443-0.039,8.918-0.583,14.253-7.472c3.068-3.96,4.625-9.02,4.625-15.039V43.305c0-16.138-11.289-22.302-18.877-22.507
			C267.112,20.795,267.026,20.794,266.94,20.794z"/>
		<path style="fill:#F1F1F1;" d="M265.955,19.809H36.33c-0.087,0-0.173,0.002-0.259,0.004c-7.587,0.226-18.875,6.372-18.875,22.51
			v11.787c-0.005,0.125-0.008,0.252-0.008,0.378v300.454c0,0.126,0.003,0.251,0.008,0.377v9.427
			c0,16.139,11.289,22.283,18.876,22.508c0.086,0.003,0.171,0.004,0.258,0.004h229.625c0.085,0,0.172-0.001,0.257-0.004
			c1.443-0.042,8.918-0.582,14.253-7.472c3.068-3.958,4.624-9.018,4.624-15.038V42.32c0-16.139-11.289-22.283-18.876-22.508
			C266.127,19.81,266.041,19.809,265.955,19.809z"/>
		<path style="fill:#E2E2E2;" d="M264.97,18.823H35.345c-0.087,0-0.173,0.001-0.259,0.004c-7.586,0.227-18.875,6.372-18.875,22.51
			v11.787c-0.005,0.125-0.008,0.252-0.008,0.378v300.454c0,0.126,0.003,0.251,0.008,0.377v9.428
			c0,16.138,11.289,22.282,18.876,22.508c0.086,0.002,0.171,0.003,0.258,0.003H264.97c0.085,0,0.172-0.001,0.257-0.003
			c1.443-0.043,8.918-0.583,14.253-7.473c3.068-3.958,4.624-9.019,4.624-15.038V41.335c0-16.139-11.289-22.282-18.876-22.508
			C265.142,18.824,265.057,18.823,264.97,18.823z"/>
		<path style="fill:#D4D4D4;" d="M263.984,17.838H34.359c-0.086,0-0.173,0.001-0.259,0.004c-7.586,0.226-18.875,6.372-18.875,22.511
			v11.786c-0.005,0.126-0.008,0.252-0.008,0.378v300.454c0,0.126,0.003,0.252,0.008,0.377v9.428
			c0,16.138,11.29,22.282,18.876,22.508c0.086,0.003,0.172,0.003,0.258,0.003h229.625c0.086,0,0.172,0,0.257-0.003
			c1.444-0.043,8.918-0.583,14.253-7.473c3.068-3.958,4.624-9.018,4.624-15.038V40.35c0-16.138-11.29-22.282-18.876-22.508
			C264.156,17.839,264.071,17.838,263.984,17.838z"/>
		<path style="fill:#C5C5C5;" d="M262.999,16.853H33.374c-0.086,0-0.173,0.001-0.259,0.004c-7.587,0.226-18.875,6.372-18.875,22.511
			v11.786c-0.005,0.126-0.007,0.252-0.007,0.378v300.454c0,0.126,0.002,0.252,0.007,0.377v9.428
			c0,16.138,11.29,22.282,18.876,22.508c0.086,0.003,0.172,0.004,0.258,0.004h229.625c0.086,0,0.172-0.001,0.257-0.004
			c1.444-0.043,8.918-0.583,14.253-7.473c3.068-3.958,4.624-9.018,4.624-15.038V39.364c0-16.138-11.289-22.282-18.876-22.508
			C263.171,16.854,263.086,16.853,262.999,16.853z"/>
		<path style="fill:#B7B7B7;" d="M262.014,15.867H32.389c-0.086,0-0.173,0.001-0.259,0.004c-7.587,0.226-18.875,6.373-18.875,22.511
			v11.787c-0.005,0.125-0.007,0.251-0.007,0.377V351c0,0.126,0.002,0.252,0.007,0.377v9.428c0,16.138,11.289,22.282,18.876,22.508
			c0.086,0.003,0.172,0.004,0.258,0.004h229.625c0.086,0,0.172-0.001,0.258-0.004c1.443-0.044,8.917-0.583,14.252-7.472
			c3.068-3.959,4.624-9.019,4.624-15.039V38.379c0-16.138-11.289-22.282-18.876-22.508
			C262.186,15.868,262.101,15.867,262.014,15.867z"/>
		<path style="fill:#A8A8A8;" d="M261.029,14.882H31.403c-0.086,0-0.173,0.001-0.259,0.004c-7.587,0.226-18.875,6.373-18.875,22.511
			v11.787c-0.004,0.125-0.007,0.251-0.007,0.377v300.454c0,0.127,0.003,0.252,0.007,0.377v9.428
			c0,16.138,11.289,22.282,18.876,22.508c0.086,0.002,0.172,0.004,0.258,0.004h229.626c0.085,0,0.171-0.002,0.257-0.004
			c1.443-0.044,8.917-0.583,14.253-7.472c3.067-3.959,4.623-9.018,4.623-15.039V37.394c0-16.138-11.289-22.282-18.875-22.508
			C261.2,14.883,261.115,14.882,261.029,14.882z"/>
		<path style="fill:#9A9A9A;" d="M260.044,13.896H30.417c-0.085,0-0.171,0.001-0.258,0.004c-7.587,0.226-18.875,6.373-18.875,22.511
			v11.787c-0.004,0.125-0.007,0.251-0.007,0.377V349.03c0,0.126,0.003,0.251,0.007,0.376v9.428
			c0,16.137,11.289,22.282,18.875,22.507c0.087,0.003,0.173,0.004,0.258,0.004h229.627c0.084,0,0.171-0.001,0.257-0.004
			c1.442-0.043,8.917-0.582,14.253-7.471c3.067-3.959,4.622-9.019,4.622-15.039V36.407c0-16.137-11.288-22.282-18.874-22.507
			C260.215,13.897,260.13,13.896,260.044,13.896z"/>
		<path style="fill:#8B8B8B;" d="M259.058,12.911H29.432c-0.086,0-0.172,0.001-0.259,0.003c-7.586,0.227-18.874,6.373-18.874,22.511
			v11.787c-0.005,0.125-0.008,0.251-0.008,0.378v300.454c0,0.126,0.003,0.251,0.008,0.376v9.428
			c0,16.138,11.289,22.283,18.875,22.508c0.087,0.003,0.172,0.004,0.258,0.004h229.626c0.085,0,0.171-0.001,0.257-0.004
			c1.443-0.042,8.917-0.582,14.253-7.472c3.067-3.959,4.624-9.019,4.624-15.039V35.422c0-16.138-11.289-22.282-18.876-22.508
			C259.229,12.912,259.144,12.911,259.058,12.911z"/>
		<path style="fill:#7D7D7D;" d="M258.072,11.926H28.446c-0.086,0-0.172,0.002-0.259,0.003c-7.586,0.227-18.874,6.373-18.874,22.511
			v11.787c-0.005,0.125-0.008,0.251-0.008,0.378v300.454c0,0.126,0.003,0.251,0.008,0.376v9.428
			c0,16.139,11.289,22.282,18.875,22.508c0.087,0.003,0.172,0.004,0.258,0.004h229.626c0.085,0,0.172-0.001,0.257-0.004
			c1.443-0.042,8.917-0.582,14.253-7.472c3.068-3.959,4.624-9.018,4.624-15.038V34.437c0-16.138-11.289-22.282-18.876-22.508
			C258.244,11.928,258.158,11.926,258.072,11.926z"/>
		<path style="fill:#6E6E6E;" d="M257.087,10.94H27.462c-0.087,0-0.173,0.001-0.259,0.004c-7.587,0.226-18.875,6.372-18.875,22.51
			v11.787c-0.005,0.125-0.008,0.252-0.008,0.378v300.454c0,0.126,0.003,0.251,0.008,0.377v9.427
			c0,16.139,11.289,22.283,18.875,22.508c0.087,0.003,0.172,0.004,0.259,0.004h229.625c0.085,0,0.172-0.001,0.257-0.004
			c1.443-0.042,8.918-0.582,14.253-7.472c3.068-3.959,4.624-9.019,4.624-15.038V33.452c0-16.139-11.289-22.283-18.876-22.508
			C257.259,10.941,257.173,10.94,257.087,10.94z"/>
		<path style="fill:#606060;" d="M256.102,9.955H26.477c-0.087,0-0.173,0.001-0.259,0.004c-7.587,0.206-18.875,6.372-18.875,22.51
			v11.787c-0.005,0.125-0.008,0.252-0.008,0.378v300.454c0,0.126,0.003,0.251,0.008,0.377v9.428
			c0,16.138,11.288,22.302,18.876,22.507c0.086,0.003,0.171,0.004,0.258,0.004h229.625c0.086,0,0.172-0.001,0.257-0.004
			c1.443-0.038,8.918-0.582,14.253-7.472c3.068-3.958,4.624-9.018,4.624-15.038V32.467c0-16.139-11.289-22.302-18.876-22.508
			C256.273,9.956,256.188,9.955,256.102,9.955z"/>
	</g>
	<path style="fill:#FFFFFF;" d="M256.102,9.955H26.477c-0.087,0-0.173,0.001-0.259,0.004c-7.587,0.206-18.875,6.372-18.875,22.51
		v11.787c-0.005,0.125-0.008,0.252-0.008,0.378v300.454c0,0.126,0.003,0.251,0.008,0.377v9.428
		c0,16.138,11.288,22.302,18.876,22.507c0.086,0.003,0.171,0.004,0.258,0.004h229.625c0.086,0,0.172-0.001,0.257-0.004
		c1.443-0.038,8.918-0.582,14.253-7.472c3.068-3.958,4.624-9.018,4.624-15.038V32.467c0-16.139-11.289-22.302-18.876-22.508
		C256.273,9.956,256.188,9.955,256.102,9.955z"/>
	<g>
		<g>
			<g>
				<path style="fill:#FFFFFF;" d="M256.102,19.455H145.974h-9.372H26.477c0,0-9.634,0.263-9.634,13.014v86.916v148.59v86.918
					c0,12.749,9.634,13.011,9.634,13.011h110.125h9.372h110.128c0,0,9.632-0.262,9.632-13.011v-86.918v-148.59V32.469
					C265.733,19.718,256.102,19.455,256.102,19.455z"/>
				<defs>
					<filter id="Adobe_OpacityMaskFilter" filterUnits="userSpaceOnUse" x="16.843" y="207.504" width="248.891" height="160.399">
						<feFlood  style="flood-color:white;flood-opacity:1" result="back"/>
						<feBlend  in="SourceGraphic" in2="back" mode="normal"/>
					</filter>
				</defs>
				<mask maskUnits="userSpaceOnUse" x="16.843" y="207.504" width="248.891" height="160.399" id="SVGID_1_">
					<g style="filter:url(#Adobe_OpacityMaskFilter);">
						<defs>
							
								<filter id="Adobe_OpacityMaskFilter_00000175302825024173451480000015312554187591457669_" filterUnits="userSpaceOnUse" x="16.843" y="207.504" width="248.891" height="160.399">
								<feFlood  style="flood-color:white;flood-opacity:1" result="back"/>
								<feBlend  in="SourceGraphic" in2="back" mode="normal"/>
							</filter>
						</defs>
						<mask maskUnits="userSpaceOnUse" x="16.843" y="207.504" width="248.891" height="160.399" id="SVGID_1_">
							<g style="filter:url(#Adobe_OpacityMaskFilter_00000175302825024173451480000015312554187591457669_);">
							</g>
						</mask>
						
							<radialGradient id="SVGID_00000107584506381076707570000007402878620779479983_" cx="137.4368" cy="-99.3337" r="503.8637" gradientUnits="userSpaceOnUse">
							<stop  offset="0.6156" style="stop-color:#000000"/>
							<stop  offset="0.7516" style="stop-color:#020202"/>
							<stop  offset="0.8037" style="stop-color:#090909"/>
							<stop  offset="0.8413" style="stop-color:#151515"/>
							<stop  offset="0.8721" style="stop-color:#262626"/>
							<stop  offset="0.8986" style="stop-color:#3C3C3C"/>
							<stop  offset="0.9222" style="stop-color:#585858"/>
							<stop  offset="0.9436" style="stop-color:#797979"/>
							<stop  offset="0.9634" style="stop-color:#9F9F9F"/>
							<stop  offset="0.9817" style="stop-color:#CBCBCB"/>
							<stop  offset="0.9982" style="stop-color:#F9F9F9"/>
							<stop  offset="1" style="stop-color:#FFFFFF"/>
						</radialGradient>
						<path style="mask:url(#SVGID_1_);fill:url(#SVGID_00000107584506381076707570000007402878620779479983_);" d="
							M163.595,207.517c-48.918,0.011-97.835,0.031-146.752,0.052v147.324c0,12.749,9.634,13.011,9.634,13.011h229.625
							c0,0,9.632-0.262,9.632-13.011V207.504C231.688,207.508,197.642,207.51,163.595,207.517z"/>
					</g>
				</mask>
				
					<radialGradient id="SVGID_00000098199678944878939990000011020067846238267789_" cx="137.4368" cy="-99.3337" r="503.8637" gradientUnits="userSpaceOnUse">
					<stop  offset="0.6156" style="stop-color:#FFFFFF"/>
					<stop  offset="0.7878" style="stop-color:#FDFDFD"/>
					<stop  offset="0.8537" style="stop-color:#F6F6F6"/>
					<stop  offset="0.9014" style="stop-color:#EAEAEA"/>
					<stop  offset="0.9403" style="stop-color:#D9D9D9"/>
					<stop  offset="0.9735" style="stop-color:#C3C3C3"/>
					<stop  offset="1" style="stop-color:#ABABAB"/>
				</radialGradient>
				<path style="fill:url(#SVGID_00000098199678944878939990000011020067846238267789_);" d="M163.595,207.517
					c-48.918,0.011-97.835,0.031-146.752,0.052v147.324c0,12.749,9.634,13.011,9.634,13.011h229.625c0,0,9.632-0.262,9.632-13.011
					V207.504C231.688,207.508,197.642,207.51,163.595,207.517z"/>
				<defs>
					
						<filter id="Adobe_OpacityMaskFilter_00000115500141351728747190000000323529320755279019_" filterUnits="userSpaceOnUse" x="16.843" y="19.455" width="248.891" height="173.938">
						<feFlood  style="flood-color:white;flood-opacity:1" result="back"/>
						<feBlend  in="SourceGraphic" in2="back" mode="normal"/>
					</filter>
				</defs>
				
					<mask maskUnits="userSpaceOnUse" x="16.843" y="19.455" width="248.891" height="173.938" id="SVGID_00000080905232277156074820000011879794041119811457_">
					<g style="filter:url(#Adobe_OpacityMaskFilter_00000115500141351728747190000000323529320755279019_);">
						<defs>
							
								<filter id="Adobe_OpacityMaskFilter_00000034054887806977520630000002542649252155540619_" filterUnits="userSpaceOnUse" x="16.843" y="19.455" width="248.891" height="173.938">
								<feFlood  style="flood-color:white;flood-opacity:1" result="back"/>
								<feBlend  in="SourceGraphic" in2="back" mode="normal"/>
							</filter>
						</defs>
						
							<mask maskUnits="userSpaceOnUse" x="16.843" y="19.455" width="248.891" height="173.938" id="SVGID_00000080905232277156074820000011879794041119811457_">
							<g style="filter:url(#Adobe_OpacityMaskFilter_00000034054887806977520630000002542649252155540619_);">
							</g>
						</mask>
						
							<radialGradient id="SVGID_00000110434450393600936480000009684457251524214925_" cx="142.4223" cy="341.0081" r="361.0531" gradientUnits="userSpaceOnUse">
							<stop  offset="0.6156" style="stop-color:#000000"/>
							<stop  offset="0.7096" style="stop-color:#020202"/>
							<stop  offset="0.7623" style="stop-color:#0A0A0A"/>
							<stop  offset="0.8047" style="stop-color:#181818"/>
							<stop  offset="0.8418" style="stop-color:#2C2C2C"/>
							<stop  offset="0.8752" style="stop-color:#464646"/>
							<stop  offset="0.9062" style="stop-color:#656565"/>
							<stop  offset="0.9352" style="stop-color:#8A8A8A"/>
							<stop  offset="0.9626" style="stop-color:#B6B6B6"/>
							<stop  offset="0.9879" style="stop-color:#E5E5E5"/>
							<stop  offset="1" style="stop-color:#FFFFFF"/>
						</radialGradient>
						
							<path style="mask:url(#SVGID_00000080905232277156074820000011879794041119811457_);fill:url(#SVGID_00000110434450393600936480000009684457251524214925_);" d="
							M16.843,193.303c20.945,0.016,41.891,0.032,62.836,0.044c60.364,0.034,120.726,0.038,181.088,0.047
							c1.656,0,3.312-0.001,4.967-0.001V32.469c0-12.751-9.632-13.014-9.632-13.014H26.477c0,0-9.634,0.263-9.634,13.014v86.916
							V193.303z"/>
					</g>
				</mask>
				
					<radialGradient id="SVGID_00000073697809682179514310000017608907445218830776_" cx="142.4223" cy="341.0081" r="361.0531" gradientUnits="userSpaceOnUse">
					<stop  offset="0.6156" style="stop-color:#FFFFFF"/>
					<stop  offset="0.747" style="stop-color:#FDFDFD"/>
					<stop  offset="0.8206" style="stop-color:#F5F5F5"/>
					<stop  offset="0.8799" style="stop-color:#E7E7E7"/>
					<stop  offset="0.9316" style="stop-color:#D3D3D3"/>
					<stop  offset="0.9778" style="stop-color:#BABABA"/>
					<stop  offset="1" style="stop-color:#ABABAB"/>
				</radialGradient>
				<path style="fill:url(#SVGID_00000073697809682179514310000017608907445218830776_);" d="M16.843,193.303
					c20.945,0.016,41.891,0.032,62.836,0.044c60.364,0.034,120.726,0.038,181.088,0.047c1.656,0,3.312-0.001,4.967-0.001V32.469
					c0-12.751-9.632-13.014-9.632-13.014H26.477c0,0-9.634,0.263-9.634,13.014v86.916V193.303z"/>
			</g>
			<g>
				<defs>
					
						<filter id="Adobe_OpacityMaskFilter_00000157279980157492928470000012769188806185326770_" filterUnits="userSpaceOnUse" x="21.427" y="19.455" width="244.309" height="348.448">
						<feFlood  style="flood-color:white;flood-opacity:1" result="back"/>
						<feBlend  in="SourceGraphic" in2="back" mode="normal"/>
					</filter>
				</defs>
				
					<mask maskUnits="userSpaceOnUse" x="21.427" y="19.455" width="244.309" height="348.448" id="SVGID_00000118392096066616960720000014753927280710225544_">
					<g style="filter:url(#Adobe_OpacityMaskFilter_00000157279980157492928470000012769188806185326770_);">
						<defs>
							
								<filter id="Adobe_OpacityMaskFilter_00000168084366427911547890000001599701419659761061_" filterUnits="userSpaceOnUse" x="21.427" y="19.455" width="244.309" height="348.448">
								<feFlood  style="flood-color:white;flood-opacity:1" result="back"/>
								<feBlend  in="SourceGraphic" in2="back" mode="normal"/>
							</filter>
						</defs>
						
							<mask maskUnits="userSpaceOnUse" x="21.427" y="19.455" width="244.309" height="348.448" id="SVGID_00000118392096066616960720000014753927280710225544_">
							<g style="filter:url(#Adobe_OpacityMaskFilter_00000168084366427911547890000001599701419659761061_);">
							</g>
						</mask>
						
							<radialGradient id="SVGID_00000038390491571340485360000005787561495136267147_" cx="6.1961" cy="19.2983" r="400.8936" gradientUnits="userSpaceOnUse">
							<stop  offset="0.0988" style="stop-color:#000000"/>
							<stop  offset="1" style="stop-color:#FFFFFF"/>
						</radialGradient>
						
							<path style="mask:url(#SVGID_00000118392096066616960720000014753927280710225544_);fill:url(#SVGID_00000038390491571340485360000005787561495136267147_);" d="
							M265.23,32.448v86.791v148.375l0.001,86.79c0,12.733-9.644,12.995-9.644,12.995H145.352h-9.383H25.73
							c0,0-2.078-0.059-4.303-1.393c2.481,1.821,5.049,1.896,5.049,1.896h110.127h9.373h110.126c0,0,9.634-0.263,9.634-13.014
							v-86.916v-148.59V32.467c0-12.75-9.634-13.012-9.634-13.012h-0.514C255.588,19.455,265.23,19.716,265.23,32.448z"/>
					</g>
				</mask>
				
					<radialGradient id="SVGID_00000061470000400774168100000005457107377758952611_" cx="6.1961" cy="19.2983" r="400.8936" gradientUnits="userSpaceOnUse">
					<stop  offset="0.0988" style="stop-color:#FFFFFF"/>
					<stop  offset="1" style="stop-color:#ABABAB"/>
				</radialGradient>
				<path style="fill:url(#SVGID_00000061470000400774168100000005457107377758952611_);" d="M265.23,32.448v86.791v148.375
					l0.001,86.79c0,12.733-9.644,12.995-9.644,12.995H145.352h-9.383H25.73c0,0-2.078-0.059-4.303-1.393
					c2.481,1.821,5.049,1.896,5.049,1.896h110.127h9.373h110.126c0,0,9.634-0.263,9.634-13.014v-86.916v-148.59V32.467
					c0-12.75-9.634-13.012-9.634-13.012h-0.514C255.588,19.455,265.23,19.716,265.23,32.448z"/>
			</g>
			<defs>
				
					<filter id="Adobe_OpacityMaskFilter_00000002384373558795905250000018296172835709661853_" filterUnits="userSpaceOnUse" x="16.843" y="19.455" width="244.309" height="348.448">
					<feFlood  style="flood-color:white;flood-opacity:1" result="back"/>
					<feBlend  in="SourceGraphic" in2="back" mode="normal"/>
				</filter>
			</defs>
			
				<mask maskUnits="userSpaceOnUse" x="16.843" y="19.455" width="244.309" height="348.448" id="SVGID_00000147192478705521016050000005156241388482915970_">
				<g style="filter:url(#Adobe_OpacityMaskFilter_00000002384373558795905250000018296172835709661853_);">
					<defs>
						
							<filter id="Adobe_OpacityMaskFilter_00000053524853857427202890000005492897313457916577_" filterUnits="userSpaceOnUse" x="16.843" y="19.455" width="244.309" height="348.448">
							<feFlood  style="flood-color:white;flood-opacity:1" result="back"/>
							<feBlend  in="SourceGraphic" in2="back" mode="normal"/>
						</filter>
					</defs>
					
						<mask maskUnits="userSpaceOnUse" x="16.843" y="19.455" width="244.309" height="348.448" id="SVGID_00000147192478705521016050000005156241388482915970_">
						<g style="filter:url(#Adobe_OpacityMaskFilter_00000053524853857427202890000005492897313457916577_);">
						</g>
					</mask>
					
						<radialGradient id="SVGID_00000040547538927943040480000001439282810276590982_" cx="84.8273" cy="120.8636" r="341.4539" gradientUnits="userSpaceOnUse">
						<stop  offset="0" style="stop-color:#000000"/>
						<stop  offset="0.0074" style="stop-color:#090909"/>
						<stop  offset="0.0477" style="stop-color:#373737"/>
						<stop  offset="0.0931" style="stop-color:#626262"/>
						<stop  offset="0.1419" style="stop-color:#888888"/>
						<stop  offset="0.195" style="stop-color:#A8A8A8"/>
						<stop  offset="0.2537" style="stop-color:#C4C4C4"/>
						<stop  offset="0.32" style="stop-color:#DADADA"/>
						<stop  offset="0.3974" style="stop-color:#EBEBEB"/>
						<stop  offset="0.4931" style="stop-color:#F6F6F6"/>
						<stop  offset="0.6274" style="stop-color:#FDFDFD"/>
						<stop  offset="1" style="stop-color:#FFFFFF"/>
					</radialGradient>
					
						<path style="mask:url(#SVGID_00000147192478705521016050000005156241388482915970_);fill:url(#SVGID_00000040547538927943040480000001439282810276590982_);" d="
						M17.347,354.911v-86.792V119.744v-86.79c0-12.732,9.643-12.994,9.643-12.994h110.237h9.381h110.241
						c0,0,2.076,0.059,4.303,1.392c-2.483-1.821-5.05-1.896-5.05-1.896H145.974h-9.372H26.477c0,0-9.634,0.263-9.634,13.014v86.916
						v148.59v86.918c0,12.749,9.634,13.011,9.634,13.011h0.513C26.989,367.903,17.347,367.642,17.347,354.911z"/>
				</g>
			</mask>
			
				<radialGradient id="SVGID_00000150068718330293812210000016253993711882618295_" cx="84.8273" cy="120.8636" r="341.4539" gradientUnits="userSpaceOnUse">
				<stop  offset="0" style="stop-color:#FFFFFF"/>
				<stop  offset="0.1413" style="stop-color:#FFFFFF"/>
				<stop  offset="1" style="stop-color:#FFFFFF"/>
			</radialGradient>
			<path style="fill:url(#SVGID_00000150068718330293812210000016253993711882618295_);" d="M17.347,354.911v-86.792V119.744v-86.79
				c0-12.732,9.643-12.994,9.643-12.994h110.237h9.381h110.241c0,0,2.076,0.059,4.303,1.392c-2.483-1.821-5.05-1.896-5.05-1.896
				H145.974h-9.372H26.477c0,0-9.634,0.263-9.634,13.014v86.916v148.59v86.918c0,12.749,9.634,13.011,9.634,13.011h0.513
				C26.989,367.903,17.347,367.642,17.347,354.911z"/>
			<g>
				<defs>
					
						<filter id="Adobe_OpacityMaskFilter_00000120545931287534285300000009194272825677626019_" filterUnits="userSpaceOnUse" x="16.835" y="44.634" width="0.505" height="300.454">
						<feFlood  style="flood-color:white;flood-opacity:1" result="back"/>
						<feBlend  in="SourceGraphic" in2="back" mode="normal"/>
					</filter>
				</defs>
				
					<mask maskUnits="userSpaceOnUse" x="16.835" y="44.634" width="0.505" height="300.454" id="SVGID_00000119801494069840812960000008796212256072218529_">
					<g style="filter:url(#Adobe_OpacityMaskFilter_00000120545931287534285300000009194272825677626019_);">
						<defs>
							
								<filter id="Adobe_OpacityMaskFilter_00000103973389034877389220000004195540883884620442_" filterUnits="userSpaceOnUse" x="16.835" y="44.634" width="0.505" height="300.454">
								<feFlood  style="flood-color:white;flood-opacity:1" result="back"/>
								<feBlend  in="SourceGraphic" in2="back" mode="normal"/>
							</filter>
						</defs>
						
							<mask maskUnits="userSpaceOnUse" x="16.835" y="44.634" width="0.505" height="300.454" id="SVGID_00000119801494069840812960000008796212256072218529_">
							<g style="filter:url(#Adobe_OpacityMaskFilter_00000103973389034877389220000004195540883884620442_);">
							</g>
						</mask>
						
							<radialGradient id="SVGID_00000096022334235875231020000005383816593396428422_" cx="341.1117" cy="19.2968" r="400.8553" gradientTransform="matrix(-1 0 0 1 617.418 0)" gradientUnits="userSpaceOnUse">
							<stop  offset="0.0988" style="stop-color:#000000"/>
							<stop  offset="1" style="stop-color:#FFFFFF"/>
						</radialGradient>
						
							<path style="mask:url(#SVGID_00000119801494069840812960000008796212256072218529_);fill:url(#SVGID_00000096022334235875231020000005383816593396428422_);" d="
							M16.835,44.634v300.454c0.167-0.608,0.332-1.217,0.504-1.825l0.001-75.648V50.08C17.167,48.265,16.998,46.448,16.835,44.634z"
							/>
					</g>
				</mask>
				
					<radialGradient id="SVGID_00000166641519192137415130000002252824541649237933_" cx="341.1117" cy="19.2968" r="400.8553" gradientTransform="matrix(-1 0 0 1 617.418 0)" gradientUnits="userSpaceOnUse">
					<stop  offset="0.0988" style="stop-color:#FFFFFF"/>
					<stop  offset="1" style="stop-color:#ABABAB"/>
				</radialGradient>
				<path style="fill:url(#SVGID_00000166641519192137415130000002252824541649237933_);" d="M16.835,44.634v300.454
					c0.167-0.608,0.332-1.217,0.504-1.825l0.001-75.648V50.08C17.167,48.265,16.998,46.448,16.835,44.634z"/>
			</g>
		</g>
		<g>
			<g>
				<g>
					<path d="M36.467,86.364c-0.542,6.476-4.192,11.012-4.192,11.012h4.192h4.194C40.661,97.376,37.009,92.84,36.467,86.364z"/>
					<path d="M44.297,76.765c-5.194-3.589-7.76-7.343-7.828-7.44v-0.005l-0.002,0.002l-0.001-0.002v0.005
						c-0.067,0.098-2.634,3.852-7.827,7.44c-5.263,3.637-6.462,8.173-4.579,11.596c1.883,3.424,9.412,5.092,12.407-1.708
						c2.997,6.8,10.526,5.132,12.408,1.708C50.757,84.938,49.561,80.401,44.297,76.765z"/>
				</g>
				<path d="M46.127,35.457L33.32,64.592h-3.189v-1.078L41.99,38.406v-0.329h-9.682c-0.601,0-1.082,0.055-1.441,0.164
					c-0.359,0.11-0.659,0.269-0.901,0.475c-0.242,0.205-0.444,0.477-0.606,0.813c-0.16,0.338-0.38,1.006-0.659,2.002h-1.892
					l0.439-7.128h18.879V35.457z"/>
			</g>
			<g>
				<g>
					<path d="M246.199,300.387c0.542-6.476,4.192-11.012,4.192-11.012h-4.192h-4.193
						C242.006,289.375,245.657,293.911,246.199,300.387z"/>
					<path d="M238.37,309.986c5.193,3.589,7.761,7.343,7.828,7.44v0.004l0.001-0.001l0.002,0.001v-0.004
						c0.065-0.098,2.633-3.852,7.826-7.44c5.263-3.637,6.462-8.174,4.579-11.596c-1.883-3.424-9.411-5.092-12.407,1.708
						c-2.996-6.8-10.526-5.132-12.408-1.708C231.909,301.813,233.106,306.35,238.37,309.986z"/>
				</g>
				<path d="M236.54,351.294l12.806-29.135h3.189v1.078l-11.859,25.106v0.33h9.683c0.6,0,1.081-0.055,1.441-0.164
					c0.359-0.11,0.66-0.268,0.902-0.475c0.242-0.205,0.443-0.477,0.605-0.813c0.161-0.338,0.381-1.006,0.66-2.002h1.892l-0.44,7.128
					H236.54V351.294z"/>
			</g>
			<g>
				<g>
					<g>
						<path d="M96.3,199.739c-1.075,12.854-8.323,21.857-8.323,21.857H96.3h8.322C104.622,221.596,97.377,212.593,96.3,199.739z"/>
						<path d="M111.837,180.69c-10.308-7.124-15.401-14.573-15.535-14.768v-0.01l-0.002,0.004l-0.003-0.004v0.01
							c-0.133,0.194-5.228,7.644-15.535,14.768c-10.446,7.218-12.824,16.219-9.086,23.015c3.735,6.791,18.677,10.103,24.624-3.392
							c5.946,13.494,20.89,10.183,24.625,3.392C124.661,196.909,122.283,187.908,111.837,180.69z"/>
					</g>
					<g>
						<path d="M96.3,283.865c-1.075-12.854-8.323-21.855-8.323-21.855H96.3h8.322C104.622,262.01,97.377,271.012,96.3,283.865z"/>
						<path d="M111.837,302.914c-10.308,7.124-15.401,14.573-15.535,14.768v0.01l-0.002-0.004l-0.003,0.004v-0.01
							c-0.133-0.194-5.228-7.644-15.535-14.768c-10.446-7.217-12.824-16.219-9.086-23.014c3.735-6.792,18.677-10.103,24.624,3.39
							c5.946-13.493,20.89-10.182,24.625-3.39C124.661,286.695,122.283,295.697,111.837,302.914z"/>
					</g>
					<g>
						<path d="M96.3,103.643c-1.075,12.853-8.323,21.854-8.323,21.854H96.3h8.322C104.622,125.497,97.377,116.495,96.3,103.643z"/>
						<path d="M111.837,84.593c-10.308-7.124-15.401-14.573-15.535-14.768v-0.011L96.3,69.819l-0.003-0.005v0.011
							c-0.132,0.194-5.227,7.643-15.534,14.768c-10.446,7.217-12.825,16.219-9.087,23.014c3.735,6.792,18.677,10.104,24.624-3.391
							c5.946,13.494,20.89,10.183,24.625,3.391C124.662,100.812,122.283,91.81,111.837,84.593z"/>
					</g>
				</g>
				<g>
					<g>
						<path d="M186.391,199.739c-1.075,12.854-8.322,21.857-8.322,21.857h8.322h8.323
							C194.714,221.596,187.467,212.593,186.391,199.739z"/>
						<path d="M201.929,180.69c-10.309-7.124-15.402-14.573-15.535-14.768v-0.01l-0.003,0.004l-0.003-0.004v0.01
							c-0.133,0.194-5.227,7.644-15.534,14.768c-10.447,7.218-12.824,16.219-9.088,23.015c3.737,6.791,18.679,10.103,24.625-3.392
							c5.947,13.494,20.889,10.183,24.625,3.392C214.753,196.909,212.375,187.908,201.929,180.69z"/>
					</g>
					<g>
						<path d="M186.391,283.865c-1.075-12.854-8.322-21.855-8.322-21.855h8.322h8.323
							C194.714,262.01,187.467,271.012,186.391,283.865z"/>
						<path d="M201.929,302.914c-10.309,7.124-15.402,14.573-15.535,14.768v0.01l-0.003-0.004l-0.003,0.004v-0.01
							c-0.133-0.194-5.227-7.644-15.534-14.768c-10.447-7.217-12.824-16.219-9.088-23.014c3.737-6.792,18.679-10.103,24.625,3.39
							c5.947-13.493,20.889-10.182,24.625-3.39C214.753,286.695,212.375,295.697,201.929,302.914z"/>
					</g>
					<g>
						<path d="M186.391,103.643c-1.075,12.853-8.322,21.854-8.322,21.854h8.322h8.323
							C194.714,125.497,187.467,116.495,186.391,103.643z"/>
						<path d="M201.929,84.593c-10.308-7.124-15.402-14.573-15.535-14.768v-0.011l-0.003,0.005l-0.003-0.005v0.011
							c-0.132,0.194-5.227,7.643-15.534,14.768c-10.445,7.217-12.824,16.219-9.088,23.014c3.737,6.792,18.679,10.104,24.625-3.391
							c5.947,13.494,20.889,10.183,24.625,3.391C214.754,100.812,212.375,91.81,201.929,84.593z"/>
					</g>
				</g>
				<g>
					<path d="M141.345,149.689c-1.074,12.851-8.323,21.854-8.323,21.854h8.323h8.323
						C149.668,171.543,142.422,162.54,141.345,149.689z"/>
					<path d="M156.883,130.639c-10.308-7.123-15.402-14.573-15.534-14.768v-0.011l-0.004,0.006l-0.003-0.006v0.011
						c-0.132,0.194-5.227,7.645-15.534,14.768c-10.446,7.218-12.824,16.219-9.087,23.014c3.736,6.792,18.677,10.104,24.624-3.391
						c5.946,13.494,20.89,10.183,24.626,3.391C169.707,146.857,167.328,137.856,156.883,130.639z"/>
				</g>
			</g>
		</g>
	</g>
</g>
</svg>
