<?xml version="1.0" encoding="utf-8"?>
<!-- Generator: Adobe Illustrator 27.5.0, SVG Export Plug-In . SVG Version: 6.00 Build 0)  -->
<svg version="1.1" id="Layer_1" xmlns="http://www.w3.org/2000/svg" xmlns:xlink="http://www.w3.org/1999/xlink" x="0px" y="0px"
	 viewBox="0 0 293.411 398.197" style="enable-background:new 0 0 293.411 398.197;" xml:space="preserve">
<g>
	<g>
		<path style="fill:#FFFFFF;" d="M37.058,388.239c0.085,0.002,0.172,0.003,0.258,0.003h229.625c0.086,0,0.171-0.001,0.257-0.003
			c1.444-0.039,8.917-0.583,14.253-7.472c3.068-3.96,4.624-9.02,4.624-15.039V43.305c0-16.138-11.288-22.302-18.876-22.507
			c-0.086-0.003-0.172-0.004-0.258-0.004H37.316c-0.087,0-0.172,0.001-0.259,0.004c-7.587,0.206-18.876,6.371-18.876,22.51v11.785
			c-0.005,0.126-0.007,0.253-0.007,0.38v300.454c0,0.135,0.003,0.268,0.008,0.4v9.403C18.183,381.869,29.471,388.032,37.058,388.239
			z"/>
		<path style="fill:#F1F1F1;" d="M36.073,387.253c0.086,0.003,0.171,0.004,0.258,0.004h229.625c0.085,0,0.171-0.001,0.257-0.004
			c1.444-0.042,8.917-0.582,14.253-7.471c3.068-3.959,4.624-9.02,4.624-15.039V42.32c0-16.139-11.289-22.282-18.876-22.508
			c-0.086-0.002-0.172-0.004-0.258-0.004H36.331c-0.086,0-0.172,0.002-0.259,0.004c-7.587,0.226-18.875,6.371-18.875,22.51v11.785
			c-0.005,0.126-0.008,0.253-0.008,0.38v300.454c0,0.135,0.003,0.268,0.009,0.4v9.403C17.197,380.884,28.486,387.028,36.073,387.253
			z"/>
		<path style="fill:#E2E2E2;" d="M35.087,386.268c0.086,0.002,0.172,0.003,0.258,0.003H264.97c0.086,0,0.171-0.001,0.257-0.003
			c1.444-0.043,8.917-0.583,14.253-7.472c3.068-3.959,4.624-9.02,4.624-15.039V41.335c0-16.139-11.289-22.281-18.876-22.508
			c-0.086-0.003-0.172-0.004-0.258-0.004H35.345c-0.085,0-0.172,0.001-0.258,0.004c-7.587,0.227-18.875,6.371-18.875,22.51v11.785
			c-0.005,0.127-0.007,0.253-0.007,0.38v300.454c0,0.135,0.002,0.269,0.008,0.4v9.404C16.212,379.898,27.5,386.043,35.087,386.268z"
			/>
		<path style="fill:#D4D4D4;" d="M34.102,385.283c0.086,0.003,0.172,0.003,0.258,0.003h229.626c0.085,0,0.171,0,0.257-0.003
			c1.444-0.043,8.917-0.583,14.253-7.472c3.068-3.959,4.624-9.02,4.624-15.039V40.35c0-16.138-11.289-22.281-18.876-22.508
			c-0.086-0.003-0.172-0.004-0.258-0.004H34.359c-0.086,0-0.172,0.001-0.259,0.004c-7.586,0.226-18.875,6.371-18.875,22.511v11.784
			c-0.005,0.127-0.007,0.253-0.007,0.38v300.454c0,0.135,0.002,0.268,0.008,0.401v9.403
			C15.227,378.913,26.515,385.057,34.102,385.283z"/>
		<path style="fill:#C5C5C5;" d="M33.116,384.298c0.086,0.003,0.172,0.004,0.258,0.004H263c0.086,0,0.171-0.001,0.257-0.004
			c1.444-0.043,8.917-0.583,14.253-7.472c3.068-3.959,4.624-9.019,4.624-15.039V39.364c0-16.138-11.289-22.281-18.876-22.508
			c-0.086-0.003-0.172-0.004-0.258-0.004H33.375c-0.086,0-0.172,0.001-0.259,0.004c-7.586,0.226-18.875,6.371-18.875,22.511v11.785
			c-0.005,0.126-0.007,0.252-0.007,0.379v300.454c0,0.135,0.003,0.269,0.008,0.401v9.403
			C14.241,377.928,25.529,384.071,33.116,384.298z"/>
		<path style="fill:#B7B7B7;" d="M32.131,383.313c0.086,0.003,0.172,0.004,0.258,0.004h229.625c0.086,0,0.171-0.001,0.257-0.004
			c1.444-0.044,8.917-0.583,14.253-7.472c3.068-3.959,4.624-9.019,4.624-15.039V38.379c0-16.138-11.29-22.282-18.876-22.508
			c-0.085-0.003-0.171-0.004-0.258-0.004H32.389c-0.086,0-0.172,0.001-0.259,0.004c-7.586,0.226-18.875,6.372-18.875,22.511v11.785
			c-0.005,0.126-0.007,0.252-0.007,0.379V351c0,0.135,0.003,0.268,0.008,0.401v9.403C13.256,376.942,24.544,383.086,32.131,383.313z
			"/>
		<path style="fill:#A8A8A8;" d="M31.146,382.327c0.086,0.002,0.172,0.004,0.258,0.004h229.626c0.086,0,0.171-0.002,0.257-0.004
			c1.444-0.044,8.917-0.583,14.253-7.471c3.068-3.96,4.624-9.02,4.624-15.04V37.394c0-16.138-11.289-22.282-18.876-22.508
			c-0.086-0.003-0.172-0.004-0.258-0.004H31.403c-0.086,0-0.172,0.001-0.259,0.004c-7.586,0.226-18.875,6.372-18.875,22.511v11.785
			c-0.005,0.126-0.008,0.252-0.008,0.379v300.454c0,0.135,0.003,0.269,0.009,0.401v9.403
			C12.271,375.957,23.559,382.101,31.146,382.327z"/>
		<path style="fill:#9A9A9A;" d="M30.16,381.341c0.086,0.003,0.172,0.004,0.258,0.004h229.625c0.086,0,0.171-0.001,0.257-0.004
			c1.444-0.043,8.917-0.582,14.253-7.47c3.068-3.96,4.624-9.02,4.624-15.04V36.407c0-16.137-11.289-22.281-18.876-22.507
			c-0.086-0.003-0.172-0.004-0.258-0.004H30.418c-0.086,0-0.172,0.001-0.259,0.004c-7.586,0.226-18.875,6.372-18.875,22.511v11.784
			c-0.005,0.126-0.007,0.253-0.007,0.38V349.03c0,0.133,0.002,0.267,0.008,0.4v9.403C11.285,374.971,22.573,381.115,30.16,381.341z"
			/>
		<path style="fill:#8B8B8B;" d="M29.175,380.355c0.086,0.003,0.172,0.004,0.258,0.004h229.625c0.086,0,0.171-0.001,0.257-0.004
			c1.443-0.042,8.917-0.582,14.253-7.471c3.068-3.96,4.624-9.02,4.624-15.04V35.422c0-16.138-11.289-22.281-18.876-22.508
			c-0.086-0.002-0.172-0.003-0.258-0.003H29.433c-0.087,0-0.173,0.001-0.259,0.003c-7.587,0.227-18.875,6.372-18.875,22.511V47.21
			c-0.005,0.126-0.007,0.252-0.007,0.38v300.454c0,0.134,0.002,0.268,0.008,0.4v9.403C10.3,373.985,21.588,380.13,29.175,380.355z"
			/>
		<path style="fill:#7D7D7D;" d="M28.19,379.37c0.085,0.003,0.171,0.004,0.258,0.004h229.626c0.085,0,0.17-0.001,0.257-0.004
			c1.443-0.042,8.917-0.582,14.253-7.471c3.068-3.96,4.624-9.02,4.624-15.039V34.437c0-16.138-11.289-22.281-18.876-22.508
			c-0.086-0.001-0.173-0.003-0.258-0.003H28.448c-0.086,0-0.172,0.002-0.259,0.003c-7.586,0.227-18.876,6.372-18.876,22.511v11.785
			c-0.004,0.126-0.007,0.253-0.007,0.38v300.454c0,0.134,0.003,0.268,0.008,0.4v9.403C9.314,373.001,20.603,379.145,28.19,379.37z"
			/>
		<path style="fill:#6E6E6E;" d="M27.204,378.385c0.086,0.003,0.172,0.004,0.258,0.004h229.625c0.086,0,0.171-0.001,0.257-0.004
			c1.444-0.042,8.917-0.582,14.253-7.471c3.068-3.96,4.624-9.02,4.624-15.039V33.452c0-16.139-11.29-22.282-18.876-22.508
			c-0.086-0.003-0.172-0.004-0.258-0.004H27.462c-0.086,0-0.172,0.001-0.259,0.004c-7.587,0.226-18.875,6.371-18.875,22.51v11.785
			c-0.005,0.126-0.008,0.253-0.008,0.38v300.454c0,0.135,0.003,0.268,0.009,0.4v9.403C8.329,372.016,19.618,378.159,27.204,378.385z
			"/>
		<path style="fill:#606060;" d="M26.219,377.399c0.086,0.003,0.172,0.004,0.258,0.004h229.626c0.086,0,0.171-0.001,0.257-0.004
			c1.444-0.038,8.917-0.582,14.253-7.471c3.068-3.959,4.624-9.02,4.624-15.039V32.467c0-16.139-11.289-22.302-18.876-22.508
			c-0.085-0.003-0.172-0.004-0.258-0.004H26.477c-0.086,0-0.172,0.001-0.259,0.004c-7.587,0.206-18.875,6.371-18.875,22.51v11.785
			c-0.005,0.126-0.008,0.253-0.008,0.38v300.454c0,0.135,0.003,0.269,0.009,0.4v9.404C7.344,371.03,18.631,377.194,26.219,377.399z"
			/>
	</g>
	<path style="fill:#FFFFFF;" d="M26.219,377.399c0.086,0.003,0.172,0.004,0.258,0.004h229.626c0.086,0,0.171-0.001,0.257-0.004
		c1.444-0.038,8.917-0.582,14.253-7.471c3.068-3.959,4.624-9.02,4.624-15.039V32.467c0-16.139-11.289-22.302-18.876-22.508
		c-0.085-0.003-0.172-0.004-0.258-0.004H26.477c-0.086,0-0.172,0.001-0.259,0.004c-7.587,0.206-18.875,6.371-18.875,22.51v11.785
		c-0.005,0.126-0.008,0.253-0.008,0.38v300.454c0,0.135,0.003,0.269,0.009,0.4v9.404C7.344,371.03,18.631,377.194,26.219,377.399z"
		/>
	<g>
		<g>
			<g>
				<path style="fill:#FFFFFF;" d="M256.102,19.455H145.976h-9.372H26.477c0,0-9.634,0.263-9.634,13.014l0.001,86.916v148.59v86.918
					c0,12.749,9.633,13.011,9.633,13.011h110.127h9.372h110.127c0,0,9.633-0.262,9.633-13.011v-86.918v-148.59V32.469
					C265.735,19.718,256.102,19.455,256.102,19.455z"/>
				<defs>
					<filter id="Adobe_OpacityMaskFilter" filterUnits="userSpaceOnUse" x="16.844" y="207.504" width="248.891" height="160.399">
						<feFlood  style="flood-color:white;flood-opacity:1" result="back"/>
						<feBlend  in="SourceGraphic" in2="back" mode="normal"/>
					</filter>
				</defs>
				<mask maskUnits="userSpaceOnUse" x="16.844" y="207.504" width="248.891" height="160.399" id="SVGID_1_">
					<g style="filter:url(#Adobe_OpacityMaskFilter);">
						<defs>
							
								<filter id="Adobe_OpacityMaskFilter_00000114037801225084956950000014553929926025533842_" filterUnits="userSpaceOnUse" x="16.844" y="207.504" width="248.891" height="160.399">
								<feFlood  style="flood-color:white;flood-opacity:1" result="back"/>
								<feBlend  in="SourceGraphic" in2="back" mode="normal"/>
							</filter>
						</defs>
						<mask maskUnits="userSpaceOnUse" x="16.844" y="207.504" width="248.891" height="160.399" id="SVGID_1_">
							<g style="filter:url(#Adobe_OpacityMaskFilter_00000114037801225084956950000014553929926025533842_);">
							</g>
						</mask>
						
							<radialGradient id="SVGID_00000131345073639238621270000015265885729547070137_" cx="137.438" cy="-99.3337" r="503.8638" gradientUnits="userSpaceOnUse">
							<stop  offset="0.6156" style="stop-color:#000000"/>
							<stop  offset="0.7516" style="stop-color:#020202"/>
							<stop  offset="0.8037" style="stop-color:#090909"/>
							<stop  offset="0.8413" style="stop-color:#151515"/>
							<stop  offset="0.8721" style="stop-color:#262626"/>
							<stop  offset="0.8986" style="stop-color:#3C3C3C"/>
							<stop  offset="0.9222" style="stop-color:#585858"/>
							<stop  offset="0.9436" style="stop-color:#797979"/>
							<stop  offset="0.9634" style="stop-color:#9F9F9F"/>
							<stop  offset="0.9817" style="stop-color:#CBCBCB"/>
							<stop  offset="0.9982" style="stop-color:#F9F9F9"/>
							<stop  offset="1" style="stop-color:#FFFFFF"/>
						</radialGradient>
						<path style="mask:url(#SVGID_1_);fill:url(#SVGID_00000131345073639238621270000015265885729547070137_);" d="
							M163.595,207.517c-48.918,0.011-97.834,0.031-146.751,0.052v147.324c0,12.749,9.633,13.011,9.633,13.011h229.626
							c0,0,9.633-0.262,9.633-13.011V207.504C231.688,207.508,197.642,207.51,163.595,207.517z"/>
					</g>
				</mask>
				
					<radialGradient id="SVGID_00000112611705652602857130000015771019101733143479_" cx="137.438" cy="-99.3337" r="503.8638" gradientUnits="userSpaceOnUse">
					<stop  offset="0.6156" style="stop-color:#FFFFFF"/>
					<stop  offset="0.7878" style="stop-color:#FDFDFD"/>
					<stop  offset="0.8537" style="stop-color:#F6F6F6"/>
					<stop  offset="0.9014" style="stop-color:#EAEAEA"/>
					<stop  offset="0.9403" style="stop-color:#D9D9D9"/>
					<stop  offset="0.9735" style="stop-color:#C3C3C3"/>
					<stop  offset="1" style="stop-color:#ABABAB"/>
				</radialGradient>
				<path style="fill:url(#SVGID_00000112611705652602857130000015771019101733143479_);" d="M163.595,207.517
					c-48.918,0.011-97.834,0.031-146.751,0.052v147.324c0,12.749,9.633,13.011,9.633,13.011h229.626c0,0,9.633-0.262,9.633-13.011
					V207.504C231.688,207.508,197.642,207.51,163.595,207.517z"/>
				<defs>
					
						<filter id="Adobe_OpacityMaskFilter_00000132798910373449464580000001621489955415599263_" filterUnits="userSpaceOnUse" x="16.843" y="19.455" width="248.892" height="173.938">
						<feFlood  style="flood-color:white;flood-opacity:1" result="back"/>
						<feBlend  in="SourceGraphic" in2="back" mode="normal"/>
					</filter>
				</defs>
				
					<mask maskUnits="userSpaceOnUse" x="16.843" y="19.455" width="248.892" height="173.938" id="SVGID_00000000923534112331857150000009749294139138609556_">
					<g style="filter:url(#Adobe_OpacityMaskFilter_00000132798910373449464580000001621489955415599263_);">
						<defs>
							
								<filter id="Adobe_OpacityMaskFilter_00000031192200997847889170000014947384886143032727_" filterUnits="userSpaceOnUse" x="16.843" y="19.455" width="248.892" height="173.938">
								<feFlood  style="flood-color:white;flood-opacity:1" result="back"/>
								<feBlend  in="SourceGraphic" in2="back" mode="normal"/>
							</filter>
						</defs>
						
							<mask maskUnits="userSpaceOnUse" x="16.843" y="19.455" width="248.892" height="173.938" id="SVGID_00000000923534112331857150000009749294139138609556_">
							<g style="filter:url(#Adobe_OpacityMaskFilter_00000031192200997847889170000014947384886143032727_);">
							</g>
						</mask>
						
							<radialGradient id="SVGID_00000155826350261046935550000002299652777655712384_" cx="142.423" cy="341.0081" r="361.054" gradientUnits="userSpaceOnUse">
							<stop  offset="0.6156" style="stop-color:#000000"/>
							<stop  offset="0.7096" style="stop-color:#020202"/>
							<stop  offset="0.7623" style="stop-color:#0A0A0A"/>
							<stop  offset="0.8047" style="stop-color:#181818"/>
							<stop  offset="0.8418" style="stop-color:#2C2C2C"/>
							<stop  offset="0.8752" style="stop-color:#464646"/>
							<stop  offset="0.9062" style="stop-color:#656565"/>
							<stop  offset="0.9352" style="stop-color:#8A8A8A"/>
							<stop  offset="0.9626" style="stop-color:#B6B6B6"/>
							<stop  offset="0.9879" style="stop-color:#E5E5E5"/>
							<stop  offset="1" style="stop-color:#FFFFFF"/>
						</radialGradient>
						
							<path style="mask:url(#SVGID_00000000923534112331857150000009749294139138609556_);fill:url(#SVGID_00000155826350261046935550000002299652777655712384_);" d="
							M16.844,193.303c20.945,0.016,41.891,0.032,62.836,0.044c60.363,0.034,120.725,0.038,181.087,0.047
							c1.656,0,3.311-0.001,4.968-0.001V32.469c0-12.751-9.633-13.014-9.633-13.014H26.477c0,0-9.634,0.263-9.634,13.014
							l0.001,86.916V193.303z"/>
					</g>
				</mask>
				
					<radialGradient id="SVGID_00000011027357955794414660000012453090928258633910_" cx="142.423" cy="341.0081" r="361.054" gradientUnits="userSpaceOnUse">
					<stop  offset="0.6156" style="stop-color:#FFFFFF"/>
					<stop  offset="0.747" style="stop-color:#FDFDFD"/>
					<stop  offset="0.8206" style="stop-color:#F5F5F5"/>
					<stop  offset="0.8799" style="stop-color:#E7E7E7"/>
					<stop  offset="0.9316" style="stop-color:#D3D3D3"/>
					<stop  offset="0.9778" style="stop-color:#BABABA"/>
					<stop  offset="1" style="stop-color:#ABABAB"/>
				</radialGradient>
				<path style="fill:url(#SVGID_00000011027357955794414660000012453090928258633910_);" d="M16.844,193.303
					c20.945,0.016,41.891,0.032,62.836,0.044c60.363,0.034,120.725,0.038,181.087,0.047c1.656,0,3.311-0.001,4.968-0.001V32.469
					c0-12.751-9.633-13.014-9.633-13.014H26.477c0,0-9.634,0.263-9.634,13.014l0.001,86.916V193.303z"/>
			</g>
			<g>
				<defs>
					
						<filter id="Adobe_OpacityMaskFilter_00000017482255134748711220000003700820919490795934_" filterUnits="userSpaceOnUse" x="21.427" y="19.455" width="244.31" height="348.448">
						<feFlood  style="flood-color:white;flood-opacity:1" result="back"/>
						<feBlend  in="SourceGraphic" in2="back" mode="normal"/>
					</filter>
				</defs>
				
					<mask maskUnits="userSpaceOnUse" x="21.427" y="19.455" width="244.31" height="348.448" id="SVGID_00000119835210904339731780000009952134316805514930_">
					<g style="filter:url(#Adobe_OpacityMaskFilter_00000017482255134748711220000003700820919490795934_);">
						<defs>
							
								<filter id="Adobe_OpacityMaskFilter_00000101102709591180240280000013795388505045483918_" filterUnits="userSpaceOnUse" x="21.427" y="19.455" width="244.31" height="348.448">
								<feFlood  style="flood-color:white;flood-opacity:1" result="back"/>
								<feBlend  in="SourceGraphic" in2="back" mode="normal"/>
							</filter>
						</defs>
						
							<mask maskUnits="userSpaceOnUse" x="21.427" y="19.455" width="244.31" height="348.448" id="SVGID_00000119835210904339731780000009952134316805514930_">
							<g style="filter:url(#Adobe_OpacityMaskFilter_00000101102709591180240280000013795388505045483918_);">
							</g>
						</mask>
						
							<radialGradient id="SVGID_00000155144372773416568560000012888456996027833776_" cx="6.1961" cy="19.2983" r="400.8941" gradientUnits="userSpaceOnUse">
							<stop  offset="0.0988" style="stop-color:#000000"/>
							<stop  offset="1" style="stop-color:#FFFFFF"/>
						</radialGradient>
						
							<path style="mask:url(#SVGID_00000119835210904339731780000009952134316805514930_);fill:url(#SVGID_00000155144372773416568560000012888456996027833776_);" d="
							M265.232,32.448v86.791v148.375l0.001,86.79c0,12.733-9.645,12.995-9.645,12.995H145.353h-9.383H25.73
							c0,0-2.078-0.059-4.304-1.393c2.482,1.821,5.049,1.896,5.049,1.896h110.128h9.372h110.126c0,0,9.634-0.263,9.634-13.014
							v-86.916v-148.59V32.467c0-12.75-9.634-13.012-9.634-13.012h-0.514C255.588,19.455,265.232,19.716,265.232,32.448z"/>
					</g>
				</mask>
				
					<radialGradient id="SVGID_00000176036455130476503100000010602640295777370513_" cx="6.1961" cy="19.2983" r="400.8941" gradientUnits="userSpaceOnUse">
					<stop  offset="0.0988" style="stop-color:#FFFFFF"/>
					<stop  offset="1" style="stop-color:#ABABAB"/>
				</radialGradient>
				<path style="fill:url(#SVGID_00000176036455130476503100000010602640295777370513_);" d="M265.232,32.448v86.791v148.375
					l0.001,86.79c0,12.733-9.645,12.995-9.645,12.995H145.353h-9.383H25.73c0,0-2.078-0.059-4.304-1.393
					c2.482,1.821,5.049,1.896,5.049,1.896h110.128h9.372h110.126c0,0,9.634-0.263,9.634-13.014v-86.916v-148.59V32.467
					c0-12.75-9.634-13.012-9.634-13.012h-0.514C255.588,19.455,265.232,19.716,265.232,32.448z"/>
			</g>
			<defs>
				
					<filter id="Adobe_OpacityMaskFilter_00000183246385898001639400000007798064224409669521_" filterUnits="userSpaceOnUse" x="16.843" y="19.455" width="244.31" height="348.448">
					<feFlood  style="flood-color:white;flood-opacity:1" result="back"/>
					<feBlend  in="SourceGraphic" in2="back" mode="normal"/>
				</filter>
			</defs>
			
				<mask maskUnits="userSpaceOnUse" x="16.843" y="19.455" width="244.31" height="348.448" id="SVGID_00000028301898936315037150000015353731601648449193_">
				<g style="filter:url(#Adobe_OpacityMaskFilter_00000183246385898001639400000007798064224409669521_);">
					<defs>
						
							<filter id="Adobe_OpacityMaskFilter_00000009585974581327721940000013348933415994578349_" filterUnits="userSpaceOnUse" x="16.843" y="19.455" width="244.31" height="348.448">
							<feFlood  style="flood-color:white;flood-opacity:1" result="back"/>
							<feBlend  in="SourceGraphic" in2="back" mode="normal"/>
						</filter>
					</defs>
					
						<mask maskUnits="userSpaceOnUse" x="16.843" y="19.455" width="244.31" height="348.448" id="SVGID_00000028301898936315037150000015353731601648449193_">
						<g style="filter:url(#Adobe_OpacityMaskFilter_00000009585974581327721940000013348933415994578349_);">
						</g>
					</mask>
					
						<radialGradient id="SVGID_00000061465378921142033530000008468031398321969033_" cx="84.8277" cy="120.8636" r="341.4546" gradientUnits="userSpaceOnUse">
						<stop  offset="0" style="stop-color:#000000"/>
						<stop  offset="0.0074" style="stop-color:#090909"/>
						<stop  offset="0.0477" style="stop-color:#373737"/>
						<stop  offset="0.0931" style="stop-color:#626262"/>
						<stop  offset="0.1419" style="stop-color:#888888"/>
						<stop  offset="0.195" style="stop-color:#A8A8A8"/>
						<stop  offset="0.2537" style="stop-color:#C4C4C4"/>
						<stop  offset="0.32" style="stop-color:#DADADA"/>
						<stop  offset="0.3974" style="stop-color:#EBEBEB"/>
						<stop  offset="0.4931" style="stop-color:#F6F6F6"/>
						<stop  offset="0.6274" style="stop-color:#FDFDFD"/>
						<stop  offset="1" style="stop-color:#FFFFFF"/>
					</radialGradient>
					
						<path style="mask:url(#SVGID_00000028301898936315037150000015353731601648449193_);fill:url(#SVGID_00000061465378921142033530000008468031398321969033_);" d="
						M17.347,354.911v-86.792V119.744v-86.79c0-12.732,9.643-12.994,9.643-12.994h110.238h9.381H256.85c0,0,2.076,0.059,4.303,1.392
						c-2.484-1.821-5.051-1.896-5.051-1.896H145.976h-9.372H26.477c0,0-9.634,0.263-9.634,13.014l0.001,86.916v148.59v86.918
						c0,12.749,9.633,13.011,9.633,13.011h0.513C26.99,367.903,17.347,367.642,17.347,354.911z"/>
				</g>
			</mask>
			
				<radialGradient id="SVGID_00000127729969879080588700000001701468556922017465_" cx="84.8277" cy="120.8636" r="341.4546" gradientUnits="userSpaceOnUse">
				<stop  offset="0" style="stop-color:#FFFFFF"/>
				<stop  offset="0.1413" style="stop-color:#FFFFFF"/>
				<stop  offset="1" style="stop-color:#FFFFFF"/>
			</radialGradient>
			<path style="fill:url(#SVGID_00000127729969879080588700000001701468556922017465_);" d="M17.347,354.911v-86.792V119.744v-86.79
				c0-12.732,9.643-12.994,9.643-12.994h110.238h9.381H256.85c0,0,2.076,0.059,4.303,1.392c-2.484-1.821-5.051-1.896-5.051-1.896
				H145.976h-9.372H26.477c0,0-9.634,0.263-9.634,13.014l0.001,86.916v148.59v86.918c0,12.749,9.633,13.011,9.633,13.011h0.513
				C26.99,367.903,17.347,367.642,17.347,354.911z"/>
			<g>
				<defs>
					
						<filter id="Adobe_OpacityMaskFilter_00000035498808732068176820000008872291808876674984_" filterUnits="userSpaceOnUse" x="16.835" y="44.634" width="0.505" height="300.454">
						<feFlood  style="flood-color:white;flood-opacity:1" result="back"/>
						<feBlend  in="SourceGraphic" in2="back" mode="normal"/>
					</filter>
				</defs>
				
					<mask maskUnits="userSpaceOnUse" x="16.835" y="44.634" width="0.505" height="300.454" id="SVGID_00000131339372518134424450000018009647650143632299_">
					<g style="filter:url(#Adobe_OpacityMaskFilter_00000035498808732068176820000008872291808876674984_);">
						<defs>
							
								<filter id="Adobe_OpacityMaskFilter_00000166633360035696753830000005486732495235229353_" filterUnits="userSpaceOnUse" x="16.835" y="44.634" width="0.505" height="300.454">
								<feFlood  style="flood-color:white;flood-opacity:1" result="back"/>
								<feBlend  in="SourceGraphic" in2="back" mode="normal"/>
							</filter>
						</defs>
						
							<mask maskUnits="userSpaceOnUse" x="16.835" y="44.634" width="0.505" height="300.454" id="SVGID_00000131339372518134424450000018009647650143632299_">
							<g style="filter:url(#Adobe_OpacityMaskFilter_00000166633360035696753830000005486732495235229353_);">
							</g>
						</mask>
						
							<radialGradient id="SVGID_00000127730528721522763520000012199144746720702082_" cx="340.8547" cy="19.2968" r="401.0094" gradientTransform="matrix(-1 0 0 1 617.418 0)" gradientUnits="userSpaceOnUse">
							<stop  offset="0.0988" style="stop-color:#000000"/>
							<stop  offset="1" style="stop-color:#FFFFFF"/>
						</radialGradient>
						
							<path style="mask:url(#SVGID_00000131339372518134424450000018009647650143632299_);fill:url(#SVGID_00000127730528721522763520000012199144746720702082_);" d="
							M16.835,44.634v300.454c0.168-0.608,0.334-1.217,0.504-1.825l0.002-75.648V50.08C17.169,48.265,17,46.448,16.835,44.634z"/>
					</g>
				</mask>
				
					<radialGradient id="SVGID_00000072983249217117633170000000972356907785810590_" cx="340.8547" cy="19.2968" r="401.0094" gradientTransform="matrix(-1 0 0 1 617.418 0)" gradientUnits="userSpaceOnUse">
					<stop  offset="0.0988" style="stop-color:#FFFFFF"/>
					<stop  offset="1" style="stop-color:#ABABAB"/>
				</radialGradient>
				<path style="fill:url(#SVGID_00000072983249217117633170000000972356907785810590_);" d="M16.835,44.634v300.454
					c0.168-0.608,0.334-1.217,0.504-1.825l0.002-75.648V50.08C17.169,48.265,17,46.448,16.835,44.634z"/>
			</g>
		</g>
		<g>
			<g>
				<g>
					<path d="M35.763,86.364c-0.542,6.476-4.193,11.012-4.193,11.012h4.193h4.192C39.955,97.376,36.305,92.84,35.763,86.364z"/>
					<path d="M43.591,76.765c-5.193-3.589-7.76-7.343-7.827-7.44v-0.005l-0.002,0.002v-0.002v0.005
						c-0.068,0.098-2.635,3.852-7.828,7.44c-5.263,3.637-6.46,8.173-4.579,11.596c1.882,3.424,9.411,5.092,12.407-1.708
						c2.997,6.8,10.526,5.132,12.408,1.708C50.052,84.938,48.854,80.401,43.591,76.765z"/>
				</g>
				<path d="M27.005,40.982V36.8c1.701-0.805,3.292-1.407,4.774-1.803c1.482-0.397,2.912-0.594,4.29-0.594
					c1.659,0,3.11,0.255,4.357,0.769c1.248,0.514,2.2,1.25,2.861,2.211c0.66,0.961,0.989,2.109,0.989,3.443
					c0,1.248-0.249,2.344-0.749,3.29c-0.498,0.946-1.199,1.771-2.1,2.475c-0.902,0.704-2.071,1.393-3.51,2.069v0.197
					c0.895,0.161,1.756,0.438,2.585,0.826c0.829,0.389,1.566,0.891,2.211,1.507c0.645,0.614,1.162,1.353,1.552,2.211
					c0.388,0.858,0.583,1.837,0.583,2.938c0,1.701-0.371,3.212-1.112,4.533c-0.74,1.32-1.874,2.361-3.399,3.125
					c-1.526,0.762-3.381,1.144-5.567,1.144c-1.261,0-2.622-0.143-4.081-0.429c-1.46-0.287-2.798-0.665-4.016-1.133v-4.665h2.641
					c0.514,1.525,1.191,2.633,2.035,3.322c0.843,0.69,1.992,1.033,3.444,1.033c1.906,0,3.349-0.521,4.324-1.562
					c0.975-1.041,1.463-2.582,1.463-4.62c0-2.143-0.645-3.778-1.936-4.907c-1.292-1.13-3.184-1.696-5.677-1.696h-1.981v-1.934
					c1.981-0.118,3.649-0.499,5.006-1.146c1.357-0.646,2.366-1.475,3.026-2.486c0.66-1.011,0.989-2.148,0.989-3.411
					c0-1.627-0.433-2.882-1.298-3.763c-0.865-0.88-2.126-1.32-3.785-1.32c-1.379,0-2.5,0.374-3.366,1.123
					c-0.866,0.748-1.504,1.892-1.914,3.434H27.005z"/>
			</g>
			<g>
				<g>
					<path d="M246.035,300.387c0.542-6.476,4.194-11.012,4.194-11.012h-4.194h-4.192
						C241.842,289.375,245.493,293.911,246.035,300.387z"/>
					<path d="M238.207,309.986c5.193,3.589,7.76,7.343,7.827,7.44v0.004l0.002-0.001l0.001,0.001v-0.004
						c0.068-0.098,2.634-3.852,7.828-7.44c5.263-3.637,6.461-8.174,4.579-11.596c-1.882-3.424-9.411-5.092-12.408,1.708
						c-2.996-6.8-10.525-5.132-12.407-1.708C231.745,301.813,232.943,306.35,238.207,309.986z"/>
				</g>
				<path d="M254.792,345.768v4.183c-1.701,0.804-3.292,1.407-4.774,1.803c-1.482,0.396-2.912,0.594-4.29,0.594
					c-1.659,0-3.11-0.256-4.357-0.77c-1.248-0.514-2.2-1.25-2.861-2.211c-0.66-0.961-0.99-2.109-0.99-3.443
					c0-1.248,0.25-2.344,0.749-3.29c0.498-0.946,1.199-1.77,2.1-2.475c0.902-0.704,2.072-1.395,3.51-2.069v-0.197
					c-0.895-0.162-1.756-0.438-2.586-0.826c-0.828-0.389-1.565-0.891-2.21-1.507c-0.645-0.614-1.162-1.354-1.552-2.211
					c-0.388-0.858-0.583-1.837-0.583-2.938c0-1.701,0.371-3.212,1.112-4.534c0.74-1.32,1.874-2.36,3.399-3.124
					c1.526-0.762,3.382-1.143,5.567-1.143c1.262,0,2.622,0.142,4.082,0.429c1.459,0.287,2.798,0.664,4.016,1.133v4.665h-2.641
					c-0.513-1.525-1.19-2.633-2.035-3.322c-0.844-0.69-1.992-1.034-3.444-1.034c-1.907,0-3.349,0.521-4.324,1.563
					c-0.975,1.041-1.463,2.582-1.463,4.62c0,2.143,0.645,3.778,1.936,4.907c1.292,1.13,3.184,1.695,5.677,1.695h1.981v1.935
					c-1.981,0.118-3.649,0.499-5.006,1.145c-1.357,0.648-2.366,1.476-3.026,2.487c-0.66,1.011-0.989,2.148-0.989,3.411
					c0,1.627,0.432,2.882,1.298,3.762c0.865,0.88,2.126,1.321,3.785,1.321c1.379,0,2.5-0.374,3.365-1.123
					c0.866-0.748,1.505-1.892,1.915-3.434H254.792z"/>
			</g>
			<g>
				<g>
					<path d="M141.289,103.643c-1.075,12.853-8.323,21.854-8.323,21.854h8.323h8.323
						C149.612,125.497,142.366,116.495,141.289,103.643z"/>
					<path d="M156.827,84.593c-10.309-7.124-15.402-14.573-15.535-14.768v-0.011l-0.003,0.005l-0.003-0.005v0.011
						c-0.132,0.194-5.227,7.643-15.534,14.768c-10.446,7.217-12.824,16.219-9.087,23.014c3.736,6.792,18.677,10.104,24.624-3.391
						c5.947,13.494,20.89,10.183,24.626,3.391C169.651,100.812,167.273,91.81,156.827,84.593z"/>
				</g>
				<g>
					<path d="M141.289,199.74c-1.075,12.853-8.323,21.854-8.323,21.854h8.323h8.323C149.612,221.595,142.366,212.593,141.289,199.74
						z"/>
					<path d="M156.827,180.69c-10.309-7.123-15.402-14.572-15.535-14.768v-0.01l-0.003,0.006l-0.003-0.006v0.01
						c-0.132,0.196-5.227,7.645-15.534,14.768c-10.446,7.217-12.824,16.219-9.087,23.014c3.736,6.793,18.677,10.104,24.624-3.391
						c5.947,13.494,20.89,10.184,24.626,3.391C169.651,196.909,167.273,187.907,156.827,180.69z"/>
				</g>
				<g>
					<path d="M141.289,283.865c-1.075-12.854-8.323-21.855-8.323-21.855h8.323h8.323
						C149.612,262.01,142.366,271.012,141.289,283.865z"/>
					<path d="M156.827,302.914c-10.309,7.124-15.402,14.573-15.535,14.768v0.01l-0.003-0.004l-0.003,0.004v-0.01
						c-0.132-0.194-5.227-7.644-15.534-14.768c-10.446-7.217-12.824-16.219-9.087-23.014c3.736-6.792,18.677-10.103,24.624,3.39
						c5.947-13.493,20.89-10.182,24.626-3.39C169.651,286.695,167.273,295.697,156.827,302.914z"/>
				</g>
			</g>
		</g>
	</g>
</g>
</svg>
