<?xml version="1.0" encoding="utf-8"?>
<!-- Generator: Adobe Illustrator 27.5.0, SVG Export Plug-In . SVG Version: 6.00 Build 0)  -->
<svg version="1.1" id="Layer_1" xmlns="http://www.w3.org/2000/svg" xmlns:xlink="http://www.w3.org/1999/xlink" x="0px" y="0px"
	 viewBox="0 0 293.41 398.197" style="enable-background:new 0 0 293.41 398.197;" xml:space="preserve">
<g>
	<g>
		<path style="fill:#FFFFFF;" d="M266.942,20.794H37.316c-0.088,0-0.173,0.001-0.26,0.004c-7.588,0.206-18.874,6.372-18.874,22.51
			v11.788c-0.006,0.124-0.008,0.25-0.008,0.377v300.454c0,0.135,0.002,0.268,0.008,0.4v9.403c0,16.139,11.288,22.302,18.876,22.509
			c0.085,0.002,0.17,0.003,0.258,0.003h229.626c0.084,0,0.172-0.001,0.256-0.003c1.444-0.039,8.919-0.583,14.253-7.472
			c3.068-3.96,4.624-9.02,4.624-15.039V43.305c0-16.138-11.289-22.302-18.876-22.507C267.114,20.795,267.028,20.794,266.942,20.794z
			"/>
		<path style="fill:#F1F1F1;" d="M265.956,19.809H36.33c-0.086,0-0.173,0.002-0.26,0.004c-7.586,0.226-18.874,6.372-18.874,22.51
			v11.787c-0.005,0.125-0.007,0.251-0.007,0.378v300.454c0,0.135,0.002,0.268,0.008,0.4v9.403c0,16.139,11.289,22.283,18.875,22.508
			c0.086,0.003,0.172,0.004,0.258,0.004h229.626c0.085,0,0.172-0.001,0.257-0.004c1.443-0.042,8.918-0.582,14.253-7.472
			c3.068-3.958,4.624-9.018,4.624-15.038V42.32c0-16.139-11.289-22.283-18.876-22.508C266.128,19.81,266.043,19.809,265.956,19.809z
			"/>
		<path style="fill:#E2E2E2;" d="M264.971,18.823H35.345c-0.087,0-0.173,0.001-0.259,0.004c-7.588,0.227-18.875,6.372-18.875,22.51
			v11.787c-0.005,0.125-0.008,0.251-0.008,0.378v300.454c0,0.135,0.003,0.269,0.009,0.4v9.404c0,16.138,11.288,22.282,18.875,22.508
			c0.086,0.002,0.171,0.003,0.258,0.003h229.626c0.086,0,0.172-0.001,0.257-0.003c1.444-0.043,8.918-0.583,14.253-7.473
			c3.068-3.958,4.624-9.019,4.624-15.038V41.335c0-16.139-11.289-22.282-18.876-22.508
			C265.142,18.824,265.057,18.823,264.971,18.823z"/>
		<path style="fill:#D4D4D4;" d="M263.985,17.838H34.359c-0.086,0-0.173,0.001-0.259,0.004c-7.587,0.226-18.875,6.372-18.875,22.511
			v11.786c-0.005,0.126-0.007,0.251-0.007,0.378v300.454c0,0.135,0.002,0.268,0.008,0.401v9.403
			c0,16.138,11.289,22.282,18.875,22.508c0.086,0.003,0.172,0.003,0.258,0.003h229.626c0.086,0,0.172,0,0.257-0.003
			c1.443-0.043,8.918-0.583,14.253-7.473c3.068-3.958,4.624-9.018,4.624-15.038V40.35c0-16.138-11.289-22.282-18.876-22.508
			C264.157,17.839,264.072,17.838,263.985,17.838z"/>
		<path style="fill:#C5C5C5;" d="M263,16.853H33.374c-0.087,0-0.173,0.001-0.259,0.004c-7.587,0.226-18.875,6.372-18.875,22.511
			v11.786c-0.004,0.126-0.008,0.251-0.008,0.378v300.454c0,0.135,0.004,0.269,0.009,0.401v9.403
			c0,16.138,11.289,22.282,18.875,22.508c0.086,0.003,0.171,0.004,0.258,0.004H263c0.086,0,0.172-0.001,0.258-0.004
			c1.443-0.043,8.917-0.583,14.252-7.473c3.068-3.958,4.624-9.018,4.624-15.038V39.364c0-16.138-11.29-22.282-18.876-22.508
			C263.172,16.854,263.087,16.853,263,16.853z"/>
		<path style="fill:#B7B7B7;" d="M262.016,15.867H32.389c-0.086,0-0.172,0.001-0.259,0.004c-7.587,0.226-18.874,6.373-18.874,22.511
			v11.787c-0.006,0.125-0.008,0.25-0.008,0.377V351c0,0.135,0.002,0.268,0.008,0.401v9.403c0,16.138,11.288,22.282,18.875,22.508
			c0.086,0.003,0.172,0.004,0.258,0.004h229.627c0.085,0,0.171-0.001,0.256-0.004c1.443-0.044,8.918-0.583,14.254-7.472
			c3.067-3.959,4.623-9.019,4.623-15.039V38.379c0-16.138-11.289-22.282-18.875-22.508
			C262.186,15.868,262.102,15.867,262.016,15.867z"/>
		<path style="fill:#A8A8A8;" d="M261.029,14.882H31.402c-0.085,0-0.172,0.001-0.258,0.004c-7.587,0.226-18.875,6.373-18.875,22.511
			v11.787c-0.004,0.125-0.007,0.25-0.007,0.377v300.454c0,0.135,0.003,0.269,0.009,0.401v9.403
			c0,16.138,11.287,22.282,18.874,22.508c0.087,0.002,0.172,0.004,0.257,0.004h229.627c0.086,0,0.171-0.002,0.258-0.004
			c1.442-0.044,8.916-0.583,14.252-7.472c3.067-3.959,4.624-9.018,4.624-15.039V37.394c0-16.138-11.289-22.282-18.875-22.508
			C261.2,14.883,261.115,14.882,261.029,14.882z"/>
		<path style="fill:#9A9A9A;" d="M260.045,13.896H30.418c-0.087,0-0.174,0.001-0.26,0.004c-7.586,0.226-18.875,6.373-18.875,22.511
			v11.787c-0.003,0.125-0.007,0.25-0.007,0.377V349.03c0,0.133,0.004,0.267,0.009,0.4v9.403c0,16.137,11.288,22.282,18.874,22.507
			c0.087,0.003,0.172,0.004,0.259,0.004h229.627c0.085,0,0.17-0.001,0.256-0.004c1.443-0.043,8.917-0.582,14.254-7.471
			c3.066-3.959,4.623-9.019,4.623-15.039V36.407c0-16.137-11.289-22.282-18.875-22.507C260.215,13.897,260.13,13.896,260.045,13.896
			z"/>
		<path style="fill:#8B8B8B;" d="M259.059,12.911H29.432c-0.086,0-0.172,0.001-0.258,0.003c-7.587,0.227-18.875,6.373-18.875,22.511
			v11.787c-0.005,0.125-0.008,0.25-0.008,0.378v300.454c0,0.134,0.003,0.268,0.008,0.4v9.403c0,16.138,11.289,22.283,18.875,22.508
			c0.088,0.003,0.172,0.004,0.258,0.004h229.627c0.086,0,0.172-0.001,0.257-0.004c1.443-0.042,8.917-0.582,14.254-7.472
			c3.067-3.959,4.624-9.019,4.624-15.039V35.422c0-16.138-11.29-22.282-18.876-22.508C259.23,12.912,259.145,12.911,259.059,12.911z
			"/>
		<path style="fill:#7D7D7D;" d="M258.073,11.926H28.447c-0.087,0-0.173,0.002-0.26,0.003c-7.586,0.227-18.874,6.373-18.874,22.511
			v11.787c-0.005,0.125-0.008,0.251-0.008,0.378v300.454c0,0.134,0.003,0.268,0.009,0.4v9.403c0,16.139,11.289,22.282,18.875,22.508
			c0.086,0.003,0.171,0.004,0.258,0.004h229.626c0.085,0,0.172-0.001,0.257-0.004c1.443-0.042,8.918-0.582,14.253-7.472
			c3.067-3.959,4.624-9.018,4.624-15.038V34.437c0-16.138-11.29-22.282-18.876-22.508C258.245,11.928,258.159,11.926,258.073,11.926
			z"/>
		<path style="fill:#6E6E6E;" d="M257.088,10.94H27.461c-0.086,0-0.172,0.001-0.258,0.004c-7.586,0.226-18.875,6.372-18.875,22.51
			v11.787c-0.005,0.125-0.008,0.251-0.008,0.378v300.454c0,0.135,0.003,0.268,0.009,0.4v9.403c0,16.139,11.288,22.283,18.874,22.508
			c0.087,0.003,0.172,0.004,0.258,0.004h229.627c0.086,0,0.172-0.001,0.257-0.004c1.443-0.042,8.917-0.582,14.253-7.472
			c3.068-3.959,4.624-9.019,4.624-15.038V33.452c0-16.139-11.29-22.283-18.876-22.508C257.26,10.941,257.174,10.94,257.088,10.94z"
			/>
		<path style="fill:#606060;" d="M256.103,9.955H26.476c-0.086,0-0.173,0.001-0.259,0.004c-7.587,0.206-18.875,6.372-18.875,22.51
			v11.787c-0.005,0.125-0.007,0.251-0.007,0.378v300.454c0,0.135,0.002,0.269,0.008,0.4v9.404c0,16.138,11.287,22.302,18.875,22.507
			c0.086,0.003,0.172,0.004,0.258,0.004h229.626c0.085,0,0.172-0.001,0.257-0.004c1.443-0.038,8.918-0.582,14.253-7.472
			c3.068-3.958,4.624-9.018,4.624-15.038V32.467c0-16.139-11.289-22.302-18.876-22.508C256.274,9.956,256.189,9.955,256.103,9.955z"
			/>
	</g>
	<path style="fill:#FFFFFF;" d="M256.103,9.955H26.476c-0.086,0-0.173,0.001-0.259,0.004c-7.587,0.206-18.875,6.372-18.875,22.51
		v11.787c-0.005,0.125-0.007,0.251-0.007,0.378v300.454c0,0.135,0.002,0.269,0.008,0.4v9.404c0,16.138,11.287,22.302,18.875,22.507
		c0.086,0.003,0.172,0.004,0.258,0.004h229.626c0.085,0,0.172-0.001,0.257-0.004c1.443-0.038,8.918-0.582,14.253-7.472
		c3.068-3.958,4.624-9.018,4.624-15.038V32.467c0-16.139-11.289-22.302-18.876-22.508C256.274,9.956,256.189,9.955,256.103,9.955z"
		/>
	<g>
		<g>
			<g>
				<path style="fill:#FFFFFF;" d="M256.103,19.455H145.976h-9.372H26.476c0,0-9.635,0.263-9.635,13.014l0.002,86.916v148.59v86.918
					c0,12.749,9.633,13.011,9.633,13.011h110.127h9.372h110.127c0,0,9.633-0.262,9.633-13.011v-86.918v-148.59V32.469
					C265.735,19.718,256.103,19.455,256.103,19.455z"/>
				<defs>
					<filter id="Adobe_OpacityMaskFilter" filterUnits="userSpaceOnUse" x="16.844" y="207.504" width="248.892" height="160.399">
						<feFlood  style="flood-color:white;flood-opacity:1" result="back"/>
						<feBlend  in="SourceGraphic" in2="back" mode="normal"/>
					</filter>
				</defs>
				<mask maskUnits="userSpaceOnUse" x="16.844" y="207.504" width="248.892" height="160.399" id="SVGID_1_">
					<g style="filter:url(#Adobe_OpacityMaskFilter);">
						<defs>
							
								<filter id="Adobe_OpacityMaskFilter_00000142176476483218713080000003769190150044194695_" filterUnits="userSpaceOnUse" x="16.844" y="207.504" width="248.892" height="160.399">
								<feFlood  style="flood-color:white;flood-opacity:1" result="back"/>
								<feBlend  in="SourceGraphic" in2="back" mode="normal"/>
							</filter>
						</defs>
						<mask maskUnits="userSpaceOnUse" x="16.844" y="207.504" width="248.892" height="160.399" id="SVGID_1_">
							<g style="filter:url(#Adobe_OpacityMaskFilter_00000142176476483218713080000003769190150044194695_);">
							</g>
						</mask>
						
							<radialGradient id="SVGID_00000112607004425911678340000003827288167211069110_" cx="137.4382" cy="-99.3337" r="503.8639" gradientUnits="userSpaceOnUse">
							<stop  offset="0.6156" style="stop-color:#000000"/>
							<stop  offset="0.7516" style="stop-color:#020202"/>
							<stop  offset="0.8037" style="stop-color:#090909"/>
							<stop  offset="0.8413" style="stop-color:#151515"/>
							<stop  offset="0.8721" style="stop-color:#262626"/>
							<stop  offset="0.8986" style="stop-color:#3C3C3C"/>
							<stop  offset="0.9222" style="stop-color:#585858"/>
							<stop  offset="0.9436" style="stop-color:#797979"/>
							<stop  offset="0.9634" style="stop-color:#9F9F9F"/>
							<stop  offset="0.9817" style="stop-color:#CBCBCB"/>
							<stop  offset="0.9982" style="stop-color:#F9F9F9"/>
							<stop  offset="1" style="stop-color:#FFFFFF"/>
						</radialGradient>
						<path style="mask:url(#SVGID_1_);fill:url(#SVGID_00000112607004425911678340000003827288167211069110_);" d="
							M163.595,207.517c-48.918,0.011-97.835,0.031-146.751,0.052v147.324c0,12.749,9.633,13.011,9.633,13.011h229.626
							c0,0,9.633-0.262,9.633-13.011V207.504C231.688,207.508,197.642,207.51,163.595,207.517z"/>
					</g>
				</mask>
				
					<radialGradient id="SVGID_00000026149714194474483770000014734838349402304919_" cx="137.4382" cy="-99.3337" r="503.8639" gradientUnits="userSpaceOnUse">
					<stop  offset="0.6156" style="stop-color:#FFFFFF"/>
					<stop  offset="0.7878" style="stop-color:#FDFDFD"/>
					<stop  offset="0.8537" style="stop-color:#F6F6F6"/>
					<stop  offset="0.9014" style="stop-color:#EAEAEA"/>
					<stop  offset="0.9403" style="stop-color:#D9D9D9"/>
					<stop  offset="0.9735" style="stop-color:#C3C3C3"/>
					<stop  offset="1" style="stop-color:#ABABAB"/>
				</radialGradient>
				<path style="fill:url(#SVGID_00000026149714194474483770000014734838349402304919_);" d="M163.595,207.517
					c-48.918,0.011-97.835,0.031-146.751,0.052v147.324c0,12.749,9.633,13.011,9.633,13.011h229.626c0,0,9.633-0.262,9.633-13.011
					V207.504C231.688,207.508,197.642,207.51,163.595,207.517z"/>
				<defs>
					
						<filter id="Adobe_OpacityMaskFilter_00000172400139290249952270000011859432428033891747_" filterUnits="userSpaceOnUse" x="16.842" y="19.455" width="248.893" height="173.938">
						<feFlood  style="flood-color:white;flood-opacity:1" result="back"/>
						<feBlend  in="SourceGraphic" in2="back" mode="normal"/>
					</filter>
				</defs>
				
					<mask maskUnits="userSpaceOnUse" x="16.842" y="19.455" width="248.893" height="173.938" id="SVGID_00000153689433600498228620000010113305122737112508_">
					<g style="filter:url(#Adobe_OpacityMaskFilter_00000172400139290249952270000011859432428033891747_);">
						<defs>
							
								<filter id="Adobe_OpacityMaskFilter_00000171709600721683988650000015512689893231519148_" filterUnits="userSpaceOnUse" x="16.842" y="19.455" width="248.893" height="173.938">
								<feFlood  style="flood-color:white;flood-opacity:1" result="back"/>
								<feBlend  in="SourceGraphic" in2="back" mode="normal"/>
							</filter>
						</defs>
						
							<mask maskUnits="userSpaceOnUse" x="16.842" y="19.455" width="248.893" height="173.938" id="SVGID_00000153689433600498228620000010113305122737112508_">
							<g style="filter:url(#Adobe_OpacityMaskFilter_00000171709600721683988650000015512689893231519148_);">
							</g>
						</mask>
						
							<radialGradient id="SVGID_00000169545410032799373130000010975266058136044971_" cx="142.4228" cy="341.0081" r="361.0548" gradientUnits="userSpaceOnUse">
							<stop  offset="0.6156" style="stop-color:#000000"/>
							<stop  offset="0.7096" style="stop-color:#020202"/>
							<stop  offset="0.7623" style="stop-color:#0A0A0A"/>
							<stop  offset="0.8047" style="stop-color:#181818"/>
							<stop  offset="0.8418" style="stop-color:#2C2C2C"/>
							<stop  offset="0.8752" style="stop-color:#464646"/>
							<stop  offset="0.9062" style="stop-color:#656565"/>
							<stop  offset="0.9352" style="stop-color:#8A8A8A"/>
							<stop  offset="0.9626" style="stop-color:#B6B6B6"/>
							<stop  offset="0.9879" style="stop-color:#E5E5E5"/>
							<stop  offset="1" style="stop-color:#FFFFFF"/>
						</radialGradient>
						
							<path style="mask:url(#SVGID_00000153689433600498228620000010113305122737112508_);fill:url(#SVGID_00000169545410032799373130000010975266058136044971_);" d="
							M16.844,193.303c20.945,0.016,41.891,0.032,62.836,0.044c60.362,0.034,120.725,0.038,181.088,0.047
							c1.656,0,3.311-0.001,4.968-0.001V32.469c0-12.751-9.633-13.014-9.633-13.014H26.476c0,0-9.635,0.263-9.635,13.014
							l0.002,86.916V193.303z"/>
					</g>
				</mask>
				
					<radialGradient id="SVGID_00000070084230559129013850000005568794702641770424_" cx="142.4228" cy="341.0081" r="361.0548" gradientUnits="userSpaceOnUse">
					<stop  offset="0.6156" style="stop-color:#FFFFFF"/>
					<stop  offset="0.747" style="stop-color:#FDFDFD"/>
					<stop  offset="0.8206" style="stop-color:#F5F5F5"/>
					<stop  offset="0.8799" style="stop-color:#E7E7E7"/>
					<stop  offset="0.9316" style="stop-color:#D3D3D3"/>
					<stop  offset="0.9778" style="stop-color:#BABABA"/>
					<stop  offset="1" style="stop-color:#ABABAB"/>
				</radialGradient>
				<path style="fill:url(#SVGID_00000070084230559129013850000005568794702641770424_);" d="M16.844,193.303
					c20.945,0.016,41.891,0.032,62.836,0.044c60.362,0.034,120.725,0.038,181.088,0.047c1.656,0,3.311-0.001,4.968-0.001V32.469
					c0-12.751-9.633-13.014-9.633-13.014H26.476c0,0-9.635,0.263-9.635,13.014l0.002,86.916V193.303z"/>
			</g>
			<g>
				<defs>
					
						<filter id="Adobe_OpacityMaskFilter_00000089556992307326549290000017606892559161870988_" filterUnits="userSpaceOnUse" x="21.428" y="19.455" width="244.309" height="348.448">
						<feFlood  style="flood-color:white;flood-opacity:1" result="back"/>
						<feBlend  in="SourceGraphic" in2="back" mode="normal"/>
					</filter>
				</defs>
				
					<mask maskUnits="userSpaceOnUse" x="21.428" y="19.455" width="244.309" height="348.448" id="SVGID_00000096770582370485966600000017762174517533167258_">
					<g style="filter:url(#Adobe_OpacityMaskFilter_00000089556992307326549290000017606892559161870988_);">
						<defs>
							
								<filter id="Adobe_OpacityMaskFilter_00000145044712370491178780000015352838716290500027_" filterUnits="userSpaceOnUse" x="21.428" y="19.455" width="244.309" height="348.448">
								<feFlood  style="flood-color:white;flood-opacity:1" result="back"/>
								<feBlend  in="SourceGraphic" in2="back" mode="normal"/>
							</filter>
						</defs>
						
							<mask maskUnits="userSpaceOnUse" x="21.428" y="19.455" width="244.309" height="348.448" id="SVGID_00000096770582370485966600000017762174517533167258_">
							<g style="filter:url(#Adobe_OpacityMaskFilter_00000145044712370491178780000015352838716290500027_);">
							</g>
						</mask>
						
							<radialGradient id="SVGID_00000163771040537132686740000015171182474668267186_" cx="6.197" cy="19.2983" r="400.8936" gradientUnits="userSpaceOnUse">
							<stop  offset="0.0988" style="stop-color:#000000"/>
							<stop  offset="1" style="stop-color:#FFFFFF"/>
						</radialGradient>
						
							<path style="mask:url(#SVGID_00000096770582370485966600000017762174517533167258_);fill:url(#SVGID_00000163771040537132686740000015171182474668267186_);" d="
							M265.231,32.448v86.791v148.375l0.001,86.79c0,12.733-9.644,12.995-9.644,12.995H145.352h-9.383H25.73
							c0,0-2.078-0.059-4.303-1.393c2.481,1.821,5.049,1.896,5.049,1.896h110.127h9.373h110.126c0,0,9.634-0.263,9.634-13.014
							v-86.916v-148.59V32.467c0-12.75-9.634-13.012-9.634-13.012h-0.514C255.589,19.455,265.231,19.716,265.231,32.448z"/>
					</g>
				</mask>
				
					<radialGradient id="SVGID_00000106825918370627298110000014974671031324605845_" cx="6.197" cy="19.2983" r="400.8936" gradientUnits="userSpaceOnUse">
					<stop  offset="0.0988" style="stop-color:#FFFFFF"/>
					<stop  offset="1" style="stop-color:#ABABAB"/>
				</radialGradient>
				<path style="fill:url(#SVGID_00000106825918370627298110000014974671031324605845_);" d="M265.231,32.448v86.791v148.375
					l0.001,86.79c0,12.733-9.644,12.995-9.644,12.995H145.352h-9.383H25.73c0,0-2.078-0.059-4.303-1.393
					c2.481,1.821,5.049,1.896,5.049,1.896h110.127h9.373h110.126c0,0,9.634-0.263,9.634-13.014v-86.916v-148.59V32.467
					c0-12.75-9.634-13.012-9.634-13.012h-0.514C255.589,19.455,265.231,19.716,265.231,32.448z"/>
			</g>
			<defs>
				
					<filter id="Adobe_OpacityMaskFilter_00000074418134333606476500000000585448920528978340_" filterUnits="userSpaceOnUse" x="16.842" y="19.455" width="244.311" height="348.448">
					<feFlood  style="flood-color:white;flood-opacity:1" result="back"/>
					<feBlend  in="SourceGraphic" in2="back" mode="normal"/>
				</filter>
			</defs>
			
				<mask maskUnits="userSpaceOnUse" x="16.842" y="19.455" width="244.311" height="348.448" id="SVGID_00000055682557200412185230000000177001457757878700_">
				<g style="filter:url(#Adobe_OpacityMaskFilter_00000074418134333606476500000000585448920528978340_);">
					<defs>
						
							<filter id="Adobe_OpacityMaskFilter_00000054259210899497160820000012835997076000308123_" filterUnits="userSpaceOnUse" x="16.842" y="19.455" width="244.311" height="348.448">
							<feFlood  style="flood-color:white;flood-opacity:1" result="back"/>
							<feBlend  in="SourceGraphic" in2="back" mode="normal"/>
						</filter>
					</defs>
					
						<mask maskUnits="userSpaceOnUse" x="16.842" y="19.455" width="244.311" height="348.448" id="SVGID_00000055682557200412185230000000177001457757878700_">
						<g style="filter:url(#Adobe_OpacityMaskFilter_00000054259210899497160820000012835997076000308123_);">
						</g>
					</mask>
					
						<radialGradient id="SVGID_00000121250817762026692580000011051155617777972136_" cx="84.8268" cy="120.8636" r="341.4547" gradientUnits="userSpaceOnUse">
						<stop  offset="0" style="stop-color:#000000"/>
						<stop  offset="0.0074" style="stop-color:#090909"/>
						<stop  offset="0.0477" style="stop-color:#373737"/>
						<stop  offset="0.0931" style="stop-color:#626262"/>
						<stop  offset="0.1419" style="stop-color:#888888"/>
						<stop  offset="0.195" style="stop-color:#A8A8A8"/>
						<stop  offset="0.2537" style="stop-color:#C4C4C4"/>
						<stop  offset="0.32" style="stop-color:#DADADA"/>
						<stop  offset="0.3974" style="stop-color:#EBEBEB"/>
						<stop  offset="0.4931" style="stop-color:#F6F6F6"/>
						<stop  offset="0.6274" style="stop-color:#FDFDFD"/>
						<stop  offset="1" style="stop-color:#FFFFFF"/>
					</radialGradient>
					
						<path style="mask:url(#SVGID_00000055682557200412185230000000177001457757878700_);fill:url(#SVGID_00000121250817762026692580000011051155617777972136_);" d="
						M17.348,354.911v-86.792V119.744v-86.79c0-12.732,9.643-12.994,9.643-12.994h110.237h9.382h110.24c0,0,2.076,0.059,4.303,1.392
						c-2.483-1.821-5.05-1.896-5.05-1.896H145.976h-9.372H26.476c0,0-9.635,0.263-9.635,13.014l0.002,86.916v148.59v86.918
						c0,12.749,9.633,13.011,9.633,13.011h0.514C26.99,367.903,17.348,367.642,17.348,354.911z"/>
				</g>
			</mask>
			
				<radialGradient id="SVGID_00000080897746296697331890000012335799845760500120_" cx="84.8268" cy="120.8636" r="341.4547" gradientUnits="userSpaceOnUse">
				<stop  offset="0" style="stop-color:#FFFFFF"/>
				<stop  offset="0.1413" style="stop-color:#FFFFFF"/>
				<stop  offset="1" style="stop-color:#FFFFFF"/>
			</radialGradient>
			<path style="fill:url(#SVGID_00000080897746296697331890000012335799845760500120_);" d="M17.348,354.911v-86.792V119.744v-86.79
				c0-12.732,9.643-12.994,9.643-12.994h110.237h9.382h110.24c0,0,2.076,0.059,4.303,1.392c-2.483-1.821-5.05-1.896-5.05-1.896
				H145.976h-9.372H26.476c0,0-9.635,0.263-9.635,13.014l0.002,86.916v148.59v86.918c0,12.749,9.633,13.011,9.633,13.011h0.514
				C26.99,367.903,17.348,367.642,17.348,354.911z"/>
			<g>
				<defs>
					
						<filter id="Adobe_OpacityMaskFilter_00000150810819504622857190000012651509516547540639_" filterUnits="userSpaceOnUse" x="16.834" y="44.634" width="0.506" height="300.454">
						<feFlood  style="flood-color:white;flood-opacity:1" result="back"/>
						<feBlend  in="SourceGraphic" in2="back" mode="normal"/>
					</filter>
				</defs>
				
					<mask maskUnits="userSpaceOnUse" x="16.834" y="44.634" width="0.506" height="300.454" id="SVGID_00000075121288514607441570000011936815234299979675_">
					<g style="filter:url(#Adobe_OpacityMaskFilter_00000150810819504622857190000012651509516547540639_);">
						<defs>
							
								<filter id="Adobe_OpacityMaskFilter_00000073001061931870865570000012065555816335368382_" filterUnits="userSpaceOnUse" x="16.834" y="44.634" width="0.506" height="300.454">
								<feFlood  style="flood-color:white;flood-opacity:1" result="back"/>
								<feBlend  in="SourceGraphic" in2="back" mode="normal"/>
							</filter>
						</defs>
						
							<mask maskUnits="userSpaceOnUse" x="16.834" y="44.634" width="0.506" height="300.454" id="SVGID_00000075121288514607441570000011936815234299979675_">
							<g style="filter:url(#Adobe_OpacityMaskFilter_00000073001061931870865570000012065555816335368382_);">
							</g>
						</mask>
						
							<radialGradient id="SVGID_00000176033387170478007830000016547118197859521428_" cx="340.6501" cy="19.2968" r="401.1328" gradientTransform="matrix(-1 0 0 1 617.418 0)" gradientUnits="userSpaceOnUse">
							<stop  offset="0.0988" style="stop-color:#000000"/>
							<stop  offset="1" style="stop-color:#FFFFFF"/>
						</radialGradient>
						
							<path style="mask:url(#SVGID_00000075121288514607441570000011936815234299979675_);fill:url(#SVGID_00000176033387170478007830000016547118197859521428_);" d="
							M16.834,44.634v300.454c0.17-0.608,0.334-1.217,0.504-1.825l0.002-75.648V50.08C17.168,48.265,17,46.448,16.834,44.634z"/>
					</g>
				</mask>
				
					<radialGradient id="SVGID_00000154389251240671912660000018024889258634598819_" cx="340.6501" cy="19.2968" r="401.1328" gradientTransform="matrix(-1 0 0 1 617.418 0)" gradientUnits="userSpaceOnUse">
					<stop  offset="0.0988" style="stop-color:#FFFFFF"/>
					<stop  offset="1" style="stop-color:#ABABAB"/>
				</radialGradient>
				<path style="fill:url(#SVGID_00000154389251240671912660000018024889258634598819_);" d="M16.834,44.634v300.454
					c0.17-0.608,0.334-1.217,0.504-1.825l0.002-75.648V50.08C17.168,48.265,17,46.448,16.834,44.634z"/>
			</g>
		</g>
		<g>
			<g>
				<g>
					<path d="M41.688,86.364c-0.542,6.476-4.193,11.012-4.193,11.012h4.193h4.193C45.881,97.376,42.229,92.84,41.688,86.364z"/>
					<path d="M49.517,76.765c-5.193-3.589-7.761-7.343-7.827-7.44v-0.005l-0.002,0.002l-0.002-0.002v0.005
						c-0.066,0.098-2.633,3.852-7.826,7.44c-5.264,3.637-6.462,8.173-4.58,11.596c1.883,3.424,9.412,5.092,12.408-1.708
						c2.996,6.8,10.525,5.132,12.407,1.708C55.979,84.938,54.779,80.401,49.517,76.765z"/>
				</g>
				<g>
					<path d="M35.317,59.047c0,0.85,0.048,1.493,0.143,1.924c0.096,0.435,0.264,0.785,0.506,1.057
						c0.242,0.272,0.592,0.484,1.046,0.639c0.454,0.153,1.026,0.271,1.716,0.352c0.689,0.081,1.599,0.136,2.729,0.165v1.607H25.196
						v-1.607c1.629-0.074,2.792-0.172,3.487-0.297c0.697-0.124,1.229-0.312,1.595-0.562c0.368-0.249,0.636-0.601,0.804-1.056
						c0.17-0.454,0.254-1.195,0.254-2.222V41.202c0-0.587-0.103-1.016-0.309-1.288c-0.207-0.271-0.506-0.407-0.902-0.407
						c-0.469,0-1.137,0.242-2.002,0.727c-0.865,0.484-1.935,1.151-3.213,2.002l-0.969-1.693l10.299-6.139h1.21
						c-0.089,1.407-0.133,3.357-0.133,5.852V59.047z"/>
					<path d="M49.554,65.142c-3.168,0-5.526-1.247-7.074-3.741c-1.548-2.492-2.321-6.277-2.321-11.354
						c0-2.697,0.238-5.03,0.715-6.995c0.477-1.967,1.145-3.591,2.003-4.874c0.858-1.284,1.888-2.235,3.091-2.851
						c1.203-0.615,2.517-0.923,3.938-0.923c3.214,0,5.604,1.238,7.175,3.717c1.569,2.481,2.354,6.229,2.354,11.245
						c0,5.192-0.841,9.12-2.52,11.783C55.233,63.81,52.78,65.142,49.554,65.142z M44.449,49.388c0,4.781,0.442,8.292,1.332,10.528
						c0.887,2.238,2.262,3.354,4.124,3.354c1.776,0,3.093-1.052,3.95-3.157c0.858-2.104,1.286-5.363,1.286-9.779
						c0-3.374-0.218-6.107-0.657-8.197c-0.441-2.091-1.056-3.59-1.84-4.499c-0.783-0.91-1.733-1.365-2.849-1.365
						c-1.013,0-1.859,0.302-2.541,0.902c-0.683,0.601-1.233,1.467-1.65,2.597c-0.419,1.129-0.716,2.506-0.891,4.126
						C44.535,45.519,44.449,47.349,44.449,49.388z"/>
				</g>
			</g>
			<g>
				<g>
					<path d="M241.564,300.387c0.541-6.476,4.193-11.012,4.193-11.012h-4.193h-4.193
						C237.371,289.375,241.022,293.911,241.564,300.387z"/>
					<path d="M233.736,309.986c5.193,3.589,7.759,7.343,7.826,7.44v0.004l0.002-0.001l0.002,0.001v-0.004
						c0.066-0.098,2.633-3.852,7.827-7.44c5.263-3.637,6.46-8.174,4.578-11.596c-1.882-3.424-9.41-5.092-12.407,1.708
						c-2.996-6.8-10.525-5.132-12.408-1.708C227.274,301.813,228.473,306.35,233.736,309.986z"/>
				</g>
				<g>
					<path d="M247.934,327.704c0-0.851-0.048-1.493-0.143-1.924c-0.096-0.435-0.264-0.786-0.507-1.057
						c-0.241-0.272-0.59-0.484-1.044-0.639c-0.456-0.154-1.027-0.271-1.717-0.352c-0.689-0.081-1.6-0.136-2.73-0.165v-1.607h16.262
						v1.607c-1.628,0.074-2.791,0.171-3.487,0.297c-0.697,0.124-1.229,0.311-1.595,0.561c-0.368,0.249-0.636,0.601-0.805,1.056
						c-0.169,0.454-0.253,1.195-0.253,2.222v17.845c0,0.587,0.104,1.016,0.309,1.288c0.206,0.271,0.506,0.407,0.902,0.407
						c0.47,0,1.137-0.242,2.002-0.727c0.865-0.484,1.935-1.152,3.213-2.002l0.968,1.693l-10.299,6.139h-1.208
						c0.088-1.407,0.131-3.357,0.131-5.853V327.704z"/>
					<path d="M233.697,321.609c3.17,0,5.528,1.247,7.074,3.741c1.549,2.492,2.322,6.277,2.322,11.355
						c0,2.697-0.239,5.029-0.714,6.995c-0.478,1.967-1.146,3.591-2.003,4.874c-0.859,1.283-1.889,2.235-3.093,2.85
						c-1.201,0.616-2.516,0.924-3.938,0.924c-3.213,0-5.604-1.239-7.174-3.717c-1.568-2.48-2.354-6.228-2.354-11.245
						c0-5.192,0.841-9.12,2.52-11.783C228.018,322.94,230.471,321.609,233.697,321.609z M238.803,337.363
						c0-4.781-0.443-8.292-1.332-10.528c-0.886-2.238-2.263-3.355-4.125-3.355c-1.774,0-3.092,1.053-3.949,3.158
						c-0.857,2.104-1.286,5.363-1.286,9.779c0,3.374,0.218,6.107,0.658,8.197c0.441,2.091,1.054,3.59,1.838,4.499
						c0.785,0.91,1.734,1.364,2.85,1.364c1.013,0,1.858-0.301,2.541-0.902c0.683-0.601,1.233-1.466,1.651-2.596
						c0.417-1.13,0.714-2.506,0.89-4.126C238.716,341.232,238.803,339.402,238.803,337.363z"/>
				</g>
			</g>
			<g>
				<g>
					<g>
						<path d="M186.799,219.8c1.075-12.854,8.323-21.855,8.323-21.855h-8.323h-8.322C178.477,197.944,185.722,206.946,186.799,219.8
							z"/>
						<path d="M171.262,238.85c10.309,7.124,15.402,14.573,15.534,14.767v0.011l0.003-0.005l0.003,0.005v-0.011
							c0.134-0.193,5.228-7.643,15.535-14.767c10.446-7.218,12.824-16.219,9.086-23.015c-3.735-6.791-18.677-10.104-24.624,3.391
							c-5.946-13.494-20.89-10.182-24.625-3.391C158.438,222.631,160.814,231.632,171.262,238.85z"/>
					</g>
					<g>
						<path d="M186.798,283.865c-1.074-12.854-8.322-21.855-8.322-21.855h8.322h8.323
							C195.121,262.01,187.874,271.012,186.798,283.865z"/>
						<path d="M202.336,302.914c-10.308,7.124-15.401,14.573-15.534,14.768v0.01l-0.004-0.004l-0.003,0.004v-0.01
							c-0.131-0.194-5.227-7.644-15.533-14.768c-10.447-7.217-12.825-16.219-9.088-23.014c3.736-6.792,18.678-10.103,24.624,3.39
							c5.947-13.493,20.89-10.182,24.626-3.39C215.161,286.695,212.782,295.697,202.336,302.914z"/>
					</g>
					<g>
						<path d="M186.799,103.643c-1.075,12.853-8.322,21.854-8.322,21.854h8.322h8.323
							C195.122,125.497,187.876,116.495,186.799,103.643z"/>
						<path d="M202.337,84.593c-10.309-7.124-15.401-14.573-15.535-14.768v-0.011l-0.003,0.005l-0.003-0.005v0.011
							c-0.132,0.194-5.228,7.643-15.534,14.768c-10.447,7.217-12.824,16.219-9.087,23.014c3.736,6.792,18.678,10.104,24.624-3.391
							c5.947,13.494,20.89,10.183,24.626,3.391C215.161,100.812,212.783,91.81,202.337,84.593z"/>
					</g>
					<g>
						<path d="M186.799,167.708c-1.075,12.852-8.322,21.855-8.322,21.855h8.322h8.323
							C195.122,189.563,187.876,180.56,186.799,167.708z"/>
						<path d="M202.337,148.657c-10.309-7.123-15.401-14.572-15.535-14.768v-0.01l-0.003,0.006l-0.003-0.006v0.01
							c-0.132,0.195-5.228,7.645-15.534,14.768c-10.447,7.219-12.824,16.22-9.087,23.015c3.736,6.792,18.678,10.104,24.624-3.391
							c5.947,13.494,20.89,10.183,24.626,3.391C215.161,164.877,212.783,155.876,202.337,148.657z"/>
					</g>
				</g>
				<g>
					<g>
						<path d="M95.779,219.8c1.075-12.854,8.322-21.855,8.322-21.855h-8.322h-8.323C87.456,197.944,94.702,206.946,95.779,219.8z"/>
						<path d="M80.24,238.85c10.309,7.124,15.402,14.573,15.536,14.767v0.011l0.003-0.005l0.002,0.005v-0.011
							c0.133-0.193,5.228-7.643,15.534-14.767c10.446-7.218,12.825-16.219,9.087-23.015c-3.735-6.791-18.678-10.104-24.623,3.391
							c-5.947-13.494-20.891-10.182-24.626-3.391C67.416,222.631,69.794,231.632,80.24,238.85z"/>
					</g>
					<g>
						<path d="M95.778,283.865c-1.075-12.854-8.323-21.855-8.323-21.855h8.323h8.322C104.101,262.01,96.854,271.012,95.778,283.865z
							"/>
						<path d="M111.315,302.914c-10.309,7.124-15.401,14.573-15.534,14.768v0.01l-0.003-0.004l-0.003,0.004v-0.01
							c-0.134-0.194-5.229-7.644-15.535-14.768c-10.446-7.217-12.824-16.219-9.086-23.014c3.736-6.792,18.677-10.103,24.624,3.39
							c5.946-13.493,20.889-10.182,24.626-3.39C124.139,286.695,121.762,295.697,111.315,302.914z"/>
					</g>
					<g>
						<path d="M95.778,103.643c-1.075,12.853-8.323,21.854-8.323,21.854h8.323h8.322C104.101,125.497,96.854,116.495,95.778,103.643
							z"/>
						<path d="M111.315,84.593c-10.308-7.124-15.401-14.573-15.534-14.768v-0.011l-0.003,0.005l-0.003-0.005v0.011
							c-0.133,0.194-5.229,7.643-15.535,14.768c-10.446,7.217-12.824,16.219-9.086,23.014c3.736,6.792,18.677,10.104,24.624-3.391
							c5.946,13.494,20.889,10.183,24.626,3.391C124.141,100.812,121.762,91.81,111.315,84.593z"/>
					</g>
					<g>
						<path d="M95.778,167.708c-1.075,12.852-8.323,21.855-8.323,21.855h8.323h8.322C104.101,189.563,96.854,180.56,95.778,167.708z
							"/>
						<path d="M111.315,148.657c-10.308-7.123-15.401-14.572-15.534-14.768v-0.01l-0.003,0.006l-0.003-0.006v0.01
							c-0.133,0.195-5.229,7.645-15.535,14.768c-10.446,7.219-12.824,16.22-9.086,23.015c3.736,6.792,18.677,10.104,24.624-3.391
							c5.946,13.494,20.889,10.183,24.626,3.391C124.141,164.877,121.762,155.876,111.315,148.657z"/>
					</g>
				</g>
				<g>
					<g>
						<g>
							<path d="M141.289,133.877c-1.075,12.853-8.324,21.854-8.324,21.854h8.324h8.322
								C149.611,155.731,142.365,146.73,141.289,133.877z"/>
							<path d="M156.826,114.828c-10.309-7.124-15.401-14.574-15.535-14.768v-0.012l-0.002,0.006l-0.004-0.006v0.012
								c-0.133,0.193-5.227,7.644-15.535,14.768c-10.445,7.217-12.822,16.219-9.086,23.013c3.736,6.792,18.678,10.104,24.625-3.391
								c5.947,13.495,20.889,10.183,24.625,3.391C169.65,131.047,167.273,122.045,156.826,114.828z"/>
						</g>
					</g>
					<g>
						<g>
							<path d="M141.289,248.979c-1.075-12.854-8.324-21.855-8.324-21.855h8.324h8.322
								C149.611,227.124,142.365,236.125,141.289,248.979z"/>
							<path d="M156.826,268.027c-10.309,7.124-15.401,14.574-15.535,14.768v0.012l-0.002-0.006l-0.004,0.006v-0.012
								c-0.133-0.193-5.227-7.644-15.535-14.768c-10.445-7.217-12.822-16.219-9.086-23.014c3.736-6.792,18.678-10.104,24.625,3.391
								c5.947-13.494,20.889-10.183,24.625-3.391C169.65,251.809,167.273,260.81,156.826,268.027z"/>
						</g>
					</g>
				</g>
			</g>
		</g>
	</g>
</g>
</svg>
